<?xml version="1.0" encoding="UTF-8" standalone="no"?>
<svg
   xmlns:osb="http://www.openswatchbook.org/uri/2009/osb"
   xmlns:dc="http://purl.org/dc/elements/1.1/"
   xmlns:cc="http://creativecommons.org/ns#"
   xmlns:rdf="http://www.w3.org/1999/02/22-rdf-syntax-ns#"
   xmlns:svg="http://www.w3.org/2000/svg"
   xmlns="http://www.w3.org/2000/svg"
   xmlns:xlink="http://www.w3.org/1999/xlink"
   xmlns:sodipodi="http://sodipodi.sourceforge.net/DTD/sodipodi-0.dtd"
   xmlns:inkscape="http://www.inkscape.org/namespaces/inkscape"
   inkscape:export-ydpi="96"
   inkscape:export-xdpi="96"
   inkscape:export-filename="D:\SYNC\Projects\UNITY\gates.png"
   width="1024px"
   height="1024px"
   version="1.1"
   id="svg77"
   sodipodi:docname="gates.svg"
   inkscape:version="1.0rc1 (09960d6f05, 2020-04-09)">
  <metadata
     id="metadata83">
    <rdf:RDF>
      <cc:Work
         rdf:about="">
        <dc:format>image/svg+xml</dc:format>
        <dc:type
           rdf:resource="http://purl.org/dc/dcmitype/StillImage" />
        <dc:title></dc:title>
      </cc:Work>
    </rdf:RDF>
  </metadata>
  <defs
     id="defs81">
    <linearGradient
       id="linearGradient3317"
       inkscape:collect="always">
      <stop
         id="stop3313"
         offset="0"
         style="stop-color:#ffffff;stop-opacity:1;" />
      <stop
         id="stop3315"
         offset="1"
         style="stop-color:#ffffff;stop-opacity:0;" />
    </linearGradient>
    <linearGradient
       id="linearGradient3305"
       inkscape:collect="always">
      <stop
         id="stop3301"
         offset="0"
         style="stop-color:#ffffff;stop-opacity:1;" />
      <stop
         id="stop3303"
         offset="1"
         style="stop-color:#ffffff;stop-opacity:0;" />
    </linearGradient>
    <linearGradient
       osb:paint="solid"
       id="linearGradient3060">
      <stop
         id="stop3058"
         offset="0"
         style="stop-color:#ffffff;stop-opacity:1;" />
    </linearGradient>
    <inkscape:perspective
       sodipodi:type="inkscape:persp3d"
       inkscape:vp_x="0 : 512 : 1"
       inkscape:vp_y="0 : 1000 : 0"
       inkscape:vp_z="1024 : 512 : 1"
       inkscape:persp3d-origin="512 : 341.33333 : 1"
       id="perspective1337" />
    <linearGradient
       id="linearGradient914"
       osb:paint="solid">
      <stop
         style="stop-color:#ffffff;stop-opacity:1;"
         offset="0"
         id="stop912" />
    </linearGradient>
    <clipPath
       id="cp40-4">
      <path
         id="path59-5"
         d="m 130,35 27,-1 1,14 v 13 l -27,1 -1,-14 c 0,0 0,-13 0,-13 z"
         stroke-opacity="1"
         stroke-width="4"
         stroke="#ffffff"
         fill-rule="evenodd"
         inkscape:connector-curvature="0" />
    </clipPath>
    <radialGradient
       r="30.588187"
       cy="712.89515"
       cx="1390.1277"
       id="P2_1-1"
       gradientTransform="scale(0.69631062,1.4361407)"
       fx="1390.1277"
       fy="712.89515"
       gradientUnits="userSpaceOnUse">
      <stop
         id="stop6-2"
         stop-color="#ffffff"
         offset="0%" />
      <stop
         id="stop8-3"
         stop-opacity="0.75"
         stop-color="#ffffff"
         offset="50.0008%" />
      <stop
         id="stop10-0"
         stop-opacity="0"
         stop-color="#ffffff"
         offset="100%" />
    </radialGradient>
    <linearGradient
       y2="1234.9905"
       x2="829.1562"
       y1="1195.3153"
       x1="829.1562"
       id="P2_3-7"
       gradientTransform="scale(1.2060454,0.8291562)"
       gradientUnits="userSpaceOnUse">
      <stop
         id="stop15-6"
         stop-opacity="0"
         stop-color="#ffffff"
         offset="0%" />
      <stop
         id="stop17-1"
         stop-opacity="0.75"
         stop-color="#ffffff"
         offset="50.0008%" />
      <stop
         id="stop19-9"
         stop-color="#ffffff"
         offset="100%" />
    </linearGradient>
    <clipPath
       id="cp3-6">
      <polygon
         id="polygon22-2"
         points="1024,991 1008,1024 992,1024 976,991 " />
    </clipPath>
    <clipPath
       id="cp40-6">
      <path
         id="path59-1"
         d="m 130,35 27,-1 1,14 v 13 l -27,1 -1,-14 c 0,0 0,-13 0,-13 z"
         stroke-opacity="1"
         stroke-width="4"
         stroke="#ffffff"
         fill-rule="evenodd"
         inkscape:connector-curvature="0" />
    </clipPath>
    <clipPath
       id="cp49-6">
      <path
         id="path68-2"
         d="m 162,35 27,-1 1,14 v 13 l -27,1 -1,-14 c 0,0 0,-13 0,-13 z"
         stroke-opacity="1"
         stroke-width="4"
         stroke="#ffffff"
         fill-rule="evenodd"
         inkscape:connector-curvature="0" />
    </clipPath>
    <radialGradient
       gradientUnits="userSpaceOnUse"
       fy="713.06494"
       fx="1390.1844"
       gradientTransform="matrix(0.78461759,1.6973226e-7,-9.3475434e-5,1.0461549,-122.69654,278.02337)"
       r="30.588187"
       cy="713.06494"
       cx="1390.1844"
       id="P2_1">
      <stop
         id="stop6"
         stop-color="#ffffff"
         offset="0%" />
      <stop
         id="stop8"
         stop-opacity="0.75"
         stop-color="#ffffff"
         offset="50.0008%" />
      <stop
         id="stop10"
         stop-opacity="0"
         stop-color="#ffffff"
         offset="100%" />
    </radialGradient>
    <linearGradient
       gradientUnits="userSpaceOnUse"
       gradientTransform="scale(1.2060454,0.8291562)"
       y2="1234.9905"
       x2="829.15619"
       y1="1195.1909"
       x1="829.15619"
       id="P2_3">
      <stop
         id="stop15"
         stop-opacity="0"
         stop-color="#ffffff"
         offset="0%" />
      <stop
         id="stop17"
         stop-opacity="0.75"
         stop-color="#ffffff"
         offset="50.0008%" />
      <stop
         id="stop19"
         stop-color="#ffffff"
         offset="100%" />
    </linearGradient>
    <clipPath
       id="cp3">
      <polygon
         id="polygon22"
         points="976,991 1024,991 1008,1024 992,1024" />
    </clipPath>
    <clipPath
       id="cp49">
      <path
         id="path68"
         d="M 162 35 L 189 34 L 190 48 L 190 61 L 163 62 L 162 48 C 162 48 162 35 162 35 z"
         stroke-opacity="1"
         stroke-width="4"
         stroke="#ffffff"
         fill-rule="evenodd" />
    </clipPath>
    <clipPath
       id="cp3-3">
      <polygon
         points="1024,991 1008,1024 992,1024 976,991 "
         id="polygon22-27" />
    </clipPath>
    <radialGradient
       gradientUnits="userSpaceOnUse"
       gradientTransform="matrix(2.875,0,0,4,-1710,-2976)"
       r="16"
       fy="1000"
       fx="912"
       cy="1000"
       cx="912"
       id="radialGradient3309"
       xlink:href="#linearGradient3305"
       inkscape:collect="always" />
    <radialGradient
       gradientUnits="userSpaceOnUse"
       gradientTransform="matrix(1.9668502,0,-2.3027048e-7,1.3112331,-943.64556,-339.7586)"
       r="48.809017"
       fy="1040.0581"
       fx="976"
       cy="1040.0581"
       cx="976"
       id="radialGradient3321"
       xlink:href="#linearGradient3317"
       inkscape:collect="always" />
  </defs>
  <sodipodi:namedview
     inkscape:document-rotation="0"
     pagecolor="#402060"
     bordercolor="#666666"
     borderopacity="1"
     objecttolerance="10"
     gridtolerance="10000"
     guidetolerance="10"
     inkscape:pageopacity="0"
     inkscape:pageshadow="2"
     inkscape:window-width="1920"
     inkscape:window-height="1057"
     id="namedview79"
     showgrid="false"
     inkscape:snap-page="true"
     inkscape:snap-grids="true"
     inkscape:snap-path-clip="true"
     inkscape:snap-object-midpoints="true"
     inkscape:snap-to-guides="false"
     inkscape:snap-center="false"
     inkscape:snap-smooth-nodes="true"
     inkscape:pagecheckerboard="true"
     inkscape:zoom="1.8721591"
     inkscape:cx="275.43072"
     inkscape:cy="178.76365"
     inkscape:window-x="-8"
     inkscape:window-y="403"
     inkscape:window-maximized="1"
     inkscape:current-layer="svg77">
    <inkscape:grid
       type="xygrid"
       id="grid908"
       dotted="false"
       snapvisiblegridlinesonly="false"
       spacingx="2"
       spacingy="2"
       empspacing="8"
       empcolor="#ff003f"
       empopacity="0.30196078"
       visible="true"
       color="#3fffff"
       opacity="0.1254902" />
  </sodipodi:namedview>
  <rect
     y="0"
     x="0"
     height="512"
     width="512"
     id="rect3260"
     style="fill:#000000;fill-opacity:1;fill-rule:evenodd;stroke:none;stroke-width:2;stroke-linecap:butt;stroke-miterlimit:4;stroke-dasharray:none;stroke-opacity:1;paint-order:stroke markers fill" />
  <path
     sodipodi:nodetypes="sczszcs"
     inkscape:connector-curvature="0"
     style="stroke:none;stroke-width:2"
     id="path29"
     d="m 6,31.999682 c 0,-11 -1,-22.0000003 -2,-28.0000003 h 28 c 4,0 28,-2 28,28.0000003 0,30 -24,28 -28,28 H 4 c 1,-6 2,-17 2,-28 z"
     fill="#ffffff"
     fill-rule="evenodd" />
  <path
     sodipodi:nodetypes="csccscc"
     inkscape:connector-curvature="0"
     style="stroke:none;stroke-width:2"
     id="path31"
     d="m 78,51.999682 c 4,-4 8,-12 8,-20 0,-8 -4,-16 -8,-20 -8,-8.0000003 -12,-8.0000003 2,-8.0000003 16,0 44,8.0000003 44,28.0000003 0,20 -28,28 -44,28 -14,0 -10,0 -2,-8 z"
     fill="#ffffff"
     fill-rule="evenodd" />
  <path
     sodipodi:nodetypes="szzszzs"
     inkscape:connector-curvature="0"
     style="stroke:none;stroke-width:2"
     id="path33"
     d="m 144,31.999682 c 0,-20 -10,-24.0000003 -12,-26.0000003 -2,-2 -2,-2 2,-2 4,0 22,4 22,28.0000003 0,24 -18,28 -22,28 -4,0 -4,0 -2,-2 2,-2 12,-6 12,-26 z"
     fill="#ffffff"
     fill-rule="evenodd" />
  <path
     sodipodi:nodetypes="zszsssz"
     inkscape:connector-curvature="0"
     style="stroke:none;stroke-width:2"
     id="path35"
     d="m 152,53.999682 c 6,-6 8,-14 8,-22 0,-8 -2,-16 -8,-22.0000003 -6,-6 -8,-6 0,-6 16,0 36,12.0000003 36,28.0000003 0,16 -20,28 -36,28 -8,0 -6,0 0,-6 z"
     fill="#ffffff"
     fill-rule="evenodd" />
  <path
     sodipodi:nodetypes="sszss"
     inkscape:connector-curvature="0"
     style="stroke:none;stroke-width:2"
     id="path37"
     d="m 196,31.999682 c 0,-24.0000003 0.28609,-25.4855631 4,-24.0000003 40,16.0000003 52,22.0000003 52,24.0000003 0,2 -12,8 -52,24 -3.71391,1.485562 -4,0 -4,-24 z"
     fill="#ffffff"
     fill-rule="evenodd" />
  <path
     sodipodi:nodetypes="scccccccs"
     inkscape:connector-curvature="0"
     style="stroke:none;stroke-width:2"
     id="path39"
     d="m 6,95.999682 c 0,-11 -1,-22 -2,-28 h 28 c 0,0 16,0 20,22 l -4,6 c 0,0 4.767874,6.254148 4,5.999998 -4,22 -20,22 -20,22 H 4 c 1,-6 2,-17 2,-27.999998 z"
     fill="#ffffff"
     fill-rule="evenodd" />
  <path
     sodipodi:nodetypes="csccccccc"
     inkscape:connector-curvature="0"
     style="stroke:none;stroke-width:2"
     id="path41"
     d="m 78,115.99968 c 4,-4 8,-12 8,-19.999998 0,-8 -4,-16 -8,-20 -8,-8 -12,-8 2,-8 16,0 32,8 36,22 l -4,6 4,5.999998 c -4,14 -20,22 -36,22 -14,0 -10,0 -2,-8 z"
     fill="#ffffff"
     fill-rule="evenodd" />
  <path
     sodipodi:nodetypes="zszscccsz"
     inkscape:connector-curvature="0"
     style="stroke:none;stroke-width:2"
     id="path45"
     d="m 152,117.99968 c 6,-6 8,-14 8,-21.999998 0,-8 -2,-16 -8,-22 -6,-6 -8,-6 0,-6 12,0 23.57569,10.489706 28,20 2,4 -4,8 -4,8 0,0 6,4 4,7.999998 -4.52058,9.43315 -16,20 -28,20 -8,0 -6,0 0,-6 z"
     fill="#ffffff"
     fill-rule="evenodd" />
  <path
     sodipodi:nodetypes="sscccss"
     inkscape:connector-curvature="0"
     style="stroke:none;stroke-width:2"
     id="path47"
     d="m 196,95.999682 c 0,-24 0.31346,-25.552228 4,-24 38,16 42,20 42,20 l -2,4 2,4 c 0,0 -4,3.999998 -42,19.999998 -3.68654,1.55223 -4,0 -4,-23.999998 z"
     fill="#ffffff"
     fill-rule="evenodd" />
  <circle
     r="6"
     style="fill:none;fill-opacity:1;stroke:#ffffff;stroke-width:5;stroke-miterlimit:4;stroke-dasharray:none;stroke-opacity:1"
     id="ellipse49"
     stroke-opacity="1"
     stroke-width="2"
     stroke="#ffffff"
     fill="#000000"
     cy="95.99968"
     cx="246" />
  <circle
     r="6"
     cx="182"
     cy="95.99968"
     style="fill:none;stroke-width:5;stroke-miterlimit:4;stroke-dasharray:none"
     id="ellipse51"
     stroke-opacity="1"
     stroke-width="2"
     stroke="#ffffff"
     fill="#000000" />
  <circle
     r="6"
     style="fill:none;stroke-width:5;stroke-miterlimit:4;stroke-dasharray:none"
     id="ellipse53"
     stroke-opacity="1"
     stroke-width="2"
     stroke="#ffffff"
     fill="#000000"
     cy="95.99968"
     cx="118" />
  <circle
     r="6"
     style="fill:none;stroke-width:5;stroke-miterlimit:4;stroke-dasharray:none"
     id="ellipse55"
     stroke-opacity="1"
     stroke-width="2"
     stroke="#ffffff"
     fill="#000000"
     cy="95.99968"
     cx="54" />
  <path
     inkscape:connector-curvature="0"
     style="stroke:none;stroke-width:2"
     id="path57"
     d="m 270,89.999682 16,10 18,-22 2,22 -22,13.999998 -12,-6 c 0,0 -2,-17.999998 -2,-17.999998 z"
     fill="#ffffff"
     fill-rule="evenodd" />
  <path
     sodipodi:nodetypes="cczcczc"
     inkscape:connector-curvature="0"
     style="opacity:1;fill:none;fill-opacity:1;fill-rule:evenodd;stroke-width:4;stroke-miterlimit:2;stroke-dasharray:none"
     id="path62"
     d="m 262,71.999682 50,-2 c 0,0 2,26 2,41.999998 v 8 l -50,2 c 0,0 -2,-25.999998 -2,-41.999998 z"
     clip-path="none"
     stroke-opacity="1"
     stroke-width="4"
     stroke="#ffffff"
     fill-rule="evenodd" />
  <path
     inkscape:connector-curvature="0"
     style="stroke:none;stroke-width:2"
     id="path64"
     d="m 272,7.9996817 16,18.0000003 12,-18.0000003 12,8.0000003 -18,16 18,12 -8,12 -16,-18 -12,18 -12,-8 16,-16 -16,-12 c 0,0 8,-12.0000003 8,-12.0000003 z"
     fill="#ffffff"
     fill-rule="evenodd" />
  <path
     inkscape:connector-curvature="0"
     style="stroke:none;stroke-width:2"
     id="path66"
     d="m 328,27.999682 18,12 28,-32.0000003 2,28.0000003 -28,20 -18,-10 c 0,0 -2,-18 -2,-18 z"
     fill="#ffffff"
     fill-rule="evenodd" />
  <path
     sodipodi:nodetypes="ccccccccccccc"
     inkscape:connector-curvature="0"
     style="stroke:none;stroke-width:2"
     id="path73"
     d="M 338,78 352,91.999682 360,76 l 12,5.999682 -14,14 L 372,104 366,116 352,99.999682 344,116 332,109.99968 346,95.999682 332,88 Z"
     fill="#ffffff"
     fill-rule="evenodd" />
  <path
     fill-rule="evenodd"
     fill="#ffffff"
     d="m 144,95.999682 c 0,-20 -10,-24 -12,-26 -2,-2 -2,-2 2,-2 4,0 22,4 22,28 0,23.999998 -18,27.999998 -22,27.999998 -4,0 -4,0 -2,-2 2,-2 12,-6 12,-25.999998 z"
     id="path33-9"
     style="stroke:none;stroke-width:2"
     inkscape:connector-curvature="0"
     sodipodi:nodetypes="szzszzs" />
  <path
     fill-rule="evenodd"
     stroke="#ffffff"
     stroke-width="4"
     stroke-opacity="1"
     clip-path="none"
     d="m 326,71.999682 50,-2 c 0,0 2,26 2,41.999998 v 8 l -50,2 c 0,0 -2,-25.999998 -2,-41.999998 z"
     id="path62-9"
     style="opacity:1;fill:none;fill-opacity:1;fill-rule:evenodd;stroke-width:4;stroke-miterlimit:2;stroke-dasharray:none"
     inkscape:connector-curvature="0"
     sodipodi:nodetypes="cczcczc" />
  <path
     id="path1266"
     style="opacity:1;fill:#ffffff;fill-opacity:1;fill-rule:evenodd;stroke-width:4;stroke-miterlimit:2;stroke-dasharray:none"
     d="m 46,143.99968 c 0,6 -5.581722,12 -14,12 -8.418278,0 -14,-6 -14,-12 0,-6 5.163444,-12 14,-12 8.836556,0 14,6 14,12 z"
     inkscape:connector-curvature="0"
     sodipodi:nodetypes="zzzsz" />
  <path
     id="rect1276"
     style="opacity:1;fill:#ffffff;fill-opacity:1;fill-rule:evenodd;stroke-width:4;stroke-miterlimit:2;stroke-dasharray:none"
     d="m 12,171.99968 c 18,-6 4,0 10,4 6,4 14,4 20,0 6,-4 -10,-10 10,-4 0,0 2,2 2,8 v 2 c -4,2 -16,6 -22.07233,6 -6.072332,0 -17.92767,-4 -21.92767,-6 v -2 c 0,-6 2,-8 2,-8 z"
     inkscape:connector-curvature="0"
     sodipodi:nodetypes="czzcsczcsc" />
  <path
     id="rect1279"
     style="opacity:1;fill:#ffffff;fill-opacity:1;fill-rule:evenodd;stroke-width:4;stroke-miterlimit:2;stroke-dasharray:none"
     d="m 24,155.99968 c 0,0 2,2 8,2 6,0 8,-2 8,-2 l -2,16 c 0,0 0,4 -6,4 -6,0 -6,-4 -6,-4 z"
     inkscape:connector-curvature="0"
     sodipodi:nodetypes="czcczcc" />
  <path
     id="rect1285"
     style="opacity:1;fill:#ffffff;fill-opacity:1;fill-rule:evenodd;stroke-width:4.83046;stroke-miterlimit:2;stroke-dasharray:none"
     d="m 68,173.99968 c 0,0 0,-18 2,-28 h 6 l -2,24 6,10 h 32 l 6,-10 -2,-24 h 6 c 2,10 2,28 2,28 0,0 -6,10 -8,12 0,0 -20,2 -40,0 -2,-2 -8,-12 -8,-12 z"
     inkscape:connector-curvature="0"
     sodipodi:nodetypes="ccccccccccccc" />
  <path
     id="rect1288"
     style="opacity:1;fill:#ffffff;fill-opacity:1;fill-rule:evenodd;stroke-width:4.74342;stroke-miterlimit:2;stroke-dasharray:none"
     d="m 80,139.99968 c 10,-2 22,-2 32,0 2,4 2,28 2,28 l -4,10 H 82 c 0,0 -4,-6 2,-8 6,-2 22,-2 22,-2 0,0 -10,-2 -28,0 0,0 0,-24 2,-28 z"
     inkscape:connector-curvature="0"
     sodipodi:nodetypes="ccccczccc" />
  <path
     id="rect1300"
     style="opacity:1;fill:#000000;fill-opacity:1;fill-rule:evenodd;stroke:none;stroke-width:2;stroke-miterlimit:2;stroke-dasharray:none;stroke-opacity:1"
     d="m 20,143.99968 c 6,-2 4,6 14,10 -4,0 -12,0 -14,-10 z"
     inkscape:connector-curvature="0"
     sodipodi:nodetypes="ccc" />
  <path
     style="fill:#ffffff;fill-opacity:1;stroke:none;stroke-width:2px;stroke-linecap:butt;stroke-linejoin:miter;stroke-opacity:1"
     d="m 134,171.99968 h 54 l -2,14 c -27.91887,-7.63256 -30.93885,0 -50,0 z"
     id="path1303"
     inkscape:connector-curvature="0"
     sodipodi:nodetypes="ccccc" />
  <path
     id="rect1353"
     style="opacity:1;fill:#ffffff;fill-opacity:1;fill-rule:evenodd;stroke:none;stroke-width:2;stroke-miterlimit:2;stroke-dasharray:none;stroke-opacity:1"
     d="m 150,131.99968 26,14 -14,24 -23.99999,-11.99999 z"
     inkscape:connector-curvature="0"
     sodipodi:nodetypes="ccccc" />
  <path
     id="rect1355"
     style="opacity:1;fill:#ffffff;fill-opacity:1;fill-rule:evenodd;stroke:none;stroke-width:2;stroke-miterlimit:2;stroke-dasharray:none;stroke-opacity:1"
     d="m 174,157.99968 6,-2 -2,6 -12,6 z"
     inkscape:connector-curvature="0"
     sodipodi:nodetypes="ccccc" />
  <path
     id="rect1357"
     style="opacity:1;fill:#ffffff;fill-opacity:1;fill-rule:evenodd;stroke:none;stroke-width:2;stroke-miterlimit:2;stroke-dasharray:none;stroke-opacity:1"
     d="m 178,165.99968 4,2 -4,2 h -10 z"
     inkscape:connector-curvature="0"
     sodipodi:nodetypes="ccccc" />
  <circle
     cy="31.999683"
     cx="398"
     id="path1362-7"
     style="opacity:1;fill:none;fill-opacity:1;fill-rule:evenodd;stroke:#ffffff;stroke-width:4;stroke-miterlimit:2;stroke-dasharray:none;stroke-opacity:1"
     r="6" />
  <circle
     r="6"
     style="opacity:1;fill:none;fill-opacity:1;fill-rule:evenodd;stroke:#ffffff;stroke-width:4;stroke-miterlimit:2;stroke-dasharray:none;stroke-opacity:1"
     id="path1362-7-7"
     cx="398"
     cy="51.99968" />
  <path
     style="color:#000000;font-style:normal;font-variant:normal;font-weight:normal;font-stretch:normal;font-size:medium;line-height:normal;font-family:sans-serif;font-variant-ligatures:normal;font-variant-position:normal;font-variant-caps:normal;font-variant-numeric:normal;font-variant-alternates:normal;font-variant-east-asian:normal;font-feature-settings:normal;font-variation-settings:normal;text-indent:0;text-align:start;text-decoration:none;text-decoration-line:none;text-decoration-style:solid;text-decoration-color:#000000;letter-spacing:normal;word-spacing:normal;text-transform:none;writing-mode:lr-tb;direction:ltr;text-orientation:mixed;dominant-baseline:auto;baseline-shift:baseline;text-anchor:start;white-space:normal;shape-padding:0;shape-margin:0;inline-size:0;clip-rule:nonzero;display:inline;overflow:visible;visibility:visible;opacity:1;isolation:auto;mix-blend-mode:normal;color-interpolation:sRGB;color-interpolation-filters:linearRGB;solid-color:#000000;solid-opacity:1;vector-effect:none;fill:#ffffff;fill-opacity:1;fill-rule:evenodd;stroke:none;stroke-width:4;stroke-linecap:butt;stroke-linejoin:miter;stroke-miterlimit:2;stroke-dasharray:none;stroke-dashoffset:0;stroke-opacity:1;color-rendering:auto;image-rendering:auto;shape-rendering:auto;text-rendering:auto;enable-background:accumulate;stop-color:#000000;stop-opacity:1"
     d="m 404,3.9996817 h -10 c -4.47214,0 -4,5.9400134 -4,8.0000003 0,2.468061 -0.47214,8 4,8 h 10 c 4.39458,0 8,-3.605411 8,-8 0,-4.3945891 -3.60542,-8.0000003 -8,-8.0000003 z m 0,4 c 2.23282,0 4,1.7671718 4,4.0000003 0,2.232828 -1.76718,4 -4,4 -2.23282,0 -4,-1.767172 -4,-4 0,-2.2328285 1.76718,-4.0000003 4,-4.0000003 z"
     id="path1427"
     inkscape:connector-curvature="0"
     sodipodi:nodetypes="ssssssssssss" />
  <path
     id="rect1429"
     style="opacity:1;fill:#ffffff;fill-opacity:1;fill-rule:evenodd;stroke:none;stroke-width:4;stroke-miterlimit:2;stroke-dasharray:none;stroke-opacity:1"
     d="m 416,7.9996817 c 2,-2 28,-1.9996817 28,0 v 8.0000003 c 0,2.000318 -26,2 -28,0 -2,-2 -2,-6.0000003 0,-8.0000003 z"
     inkscape:connector-curvature="0"
     sodipodi:nodetypes="zcczz" />
  <path
     sodipodi:nodetypes="zzz"
     inkscape:connector-curvature="0"
     d="m 444,31.967197 c 0,3.967197 -36,6.032485 -36,0.03249 0,-6 36,-3.999682 36,-0.03249 z"
     style="opacity:1;fill:#ffffff;fill-opacity:1;fill-rule:evenodd;stroke:none;stroke-width:4;stroke-miterlimit:2;stroke-dasharray:none;stroke-opacity:1"
     id="rect1429-0" />
  <path
     style="fill:#ffffff;fill-opacity:1;stroke:none;stroke-width:2px;stroke-linecap:butt;stroke-linejoin:miter;stroke-opacity:1"
     d="m 218,179.99968 c 2,-4 4,-18 4,-18 h 4 c 0,0 2,14 4,18 h 12 l -2,8 h -32 l -2,-8 z"
     id="path1462"
     inkscape:connector-curvature="0"
     sodipodi:nodetypes="ccccccccc" />
  <path
     style="opacity:1;fill:none;fill-opacity:1;fill-rule:evenodd;stroke:#ffffff;stroke-width:4;stroke-linecap:square;stroke-miterlimit:4;stroke-dasharray:none;stroke-opacity:1"
     id="path1509"
     sodipodi:type="arc"
     sodipodi:cx="224"
     sodipodi:cy="157.99968"
     sodipodi:rx="22"
     sodipodi:ry="21.99968"
     sodipodi:start="2.3561945"
     sodipodi:end="0.78539816"
     sodipodi:arc-type="arc"
     d="m 208.44365,173.5558 a 22,21.99968 0 0 1 0,-31.11224 22,21.99968 0 0 1 31.1127,0 22,21.99968 0 0 1 0,31.11224"
     sodipodi:open="true" />
  <path
     sodipodi:open="true"
     d="m 215.51472,166.48473 a 12,11.99968 0 0 1 0,-16.97011 12,11.99968 0 0 1 16.97056,0 12,11.99968 0 0 1 0,16.97011"
     sodipodi:arc-type="arc"
     sodipodi:end="0.78539816"
     sodipodi:start="2.3561945"
     sodipodi:ry="11.99968"
     sodipodi:rx="12"
     sodipodi:cy="157.99968"
     sodipodi:cx="224"
     sodipodi:type="arc"
     id="path1509-3"
     style="opacity:1;fill:none;fill-opacity:1;fill-rule:evenodd;stroke:#ffffff;stroke-width:4.4;stroke-linecap:square;stroke-miterlimit:4;stroke-dasharray:none;stroke-opacity:1" />
  <circle
     r="4"
     style="opacity:1;fill:#ffffff;fill-opacity:1;fill-rule:evenodd;stroke:#000000;stroke-width:4;stroke-linecap:round;stroke-miterlimit:4;stroke-dasharray:none;stroke-opacity:1;paint-order:stroke markers fill"
     id="path1526"
     cx="224"
     cy="157.99968" />
  <path
     sodipodi:open="true"
     d="M 310.93626,140.05964 A 28,27.99968 0 0 1 288,151.99936 28,27.99968 0 0 1 265.06374,140.05964"
     sodipodi:arc-type="arc"
     sodipodi:end="2.5307274"
     sodipodi:start="0.61086524"
     sodipodi:ry="27.99968"
     sodipodi:rx="28"
     sodipodi:cy="123.99968"
     sodipodi:cx="288"
     sodipodi:type="arc"
     id="path957"
     style="fill:none;fill-opacity:1;stroke:#ffffff;stroke-width:4;stroke-linecap:butt;stroke-miterlimit:4;stroke-dasharray:none;stroke-opacity:1" />
  <path
     style="fill:none;fill-opacity:1;stroke:#ffffff;stroke-width:4;stroke-linecap:butt;stroke-miterlimit:4;stroke-dasharray:none;stroke-opacity:1"
     id="path957-2"
     sodipodi:type="arc"
     sodipodi:cx="288"
     sodipodi:cy="123.99968"
     sodipodi:rx="18"
     sodipodi:ry="17.99968"
     sodipodi:start="0.61086524"
     sodipodi:end="2.5307274"
     sodipodi:arc-type="arc"
     d="M 302.74474,134.32387 A 18,17.99968 0 0 1 288,141.99936 18,17.99968 0 0 1 273.25526,134.32387"
     sodipodi:open="true" />
  <path
     sodipodi:nodetypes="ccccccc"
     inkscape:connector-curvature="0"
     id="path1020"
     d="m 272,183.99968 h 32 l -2,-8 h -4 c 4,8.00032 -22,8.00032 -18,0 h -6 z"
     style="fill:#ffffff;fill-opacity:1;stroke:none;stroke-width:2px;stroke-linecap:butt;stroke-linejoin:miter;stroke-opacity:1" />
  <circle
     r="4"
     cy="151.99968"
     cx="288"
     id="path1024"
     style="fill:#ffffff;fill-opacity:1;fill-rule:evenodd;stroke:#000000;stroke-width:8;stroke-linecap:butt;stroke-miterlimit:4;stroke-dasharray:none;stroke-opacity:1;paint-order:stroke markers fill" />
  <path
     sodipodi:nodetypes="ccccccccccccc"
     inkscape:connector-curvature="0"
     id="path1022"
     d="m 276,156 -6,-3.2e-4 c 0,7.06317 4,14 14,16 l -2,4 h 12 l -2,-4 c 10,-2 14,-8.96256 14,-16 L 300,156 c -6,4 -8,3.99968 -8,3.99968 l -2,-6 h -4 l -2,6 c 0,0 -2,3.2e-4 -8,-3.99968 z"
     style="fill:#ffffff;fill-opacity:1;stroke:none;stroke-width:2px;stroke-linecap:butt;stroke-linejoin:miter;stroke-opacity:1" />
  <path
     sodipodi:nodetypes="ccccccccccccc"
     inkscape:connector-curvature="0"
     d="m 68,237.99968 4,-36 h 6 l -4,32 6,10 h 32 l 6,-10 -4,-32 h 6 l 4,36 -8,12 H 76 Z"
     style="opacity:1;fill:#ffffff;fill-opacity:1;fill-rule:evenodd;stroke-width:4.83046;stroke-miterlimit:2;stroke-dasharray:none"
     id="rect1285-4" />
  <path
     sodipodi:nodetypes="ccccccccc"
     inkscape:connector-curvature="0"
     d="m 80,205.99968 h 32 l 2,24 -4,10 H 82 l -4,-10 h 28 -28 z"
     style="opacity:1;fill:#ffffff;fill-opacity:1;fill-rule:evenodd;stroke-width:4.74342;stroke-miterlimit:2;stroke-dasharray:none"
     id="rect1288-0" />
  <rect
     y="201.99968"
     x="74"
     height="2"
     width="42"
     id="rect1044"
     style="fill:#ffffff;fill-opacity:1;fill-rule:evenodd;stroke:none;stroke-width:3;stroke-linecap:butt;stroke-miterlimit:4;stroke-dasharray:none;stroke-opacity:1;paint-order:normal" />
  <path
     sodipodi:open="true"
     d="M 300.12436,155 A 14,10 0 0 1 288,160 14,10 0 0 1 275.87564,155"
     sodipodi:arc-type="arc"
     sodipodi:end="2.6179939"
     sodipodi:start="0.52359878"
     sodipodi:ry="10"
     sodipodi:rx="14"
     sodipodi:cy="150"
     sodipodi:cx="288"
     sodipodi:type="arc"
     style="fill:none;fill-opacity:1;fill-rule:evenodd;stroke:#000000;stroke-width:2;stroke-linecap:butt;stroke-miterlimit:4;stroke-dasharray:none;stroke-opacity:1;paint-order:stroke fill markers"
     id="path1024-8" />
  <path
     sodipodi:nodetypes="ssssscccscccs"
     inkscape:connector-curvature="0"
     id="path1075"
     d="m 86,264.00031 c -18,0 -18,12.3602 -18,26 0,24 0,24 28,24 28,0 28,0 28,-24 0,-13.6398 0,-26 -18,-26 -2,0 0,2 0,2 8,4 10,8 10,14 v 10 c 0,8.45158 -8.54663,14 -20,14 -11.453366,0 -20,-5.54842 -20,-14 v -10 c 0,-6 2,-10 10,-14 0,0 2,-2 0,-2 z"
     style="color:#000000;font-style:normal;font-variant:normal;font-weight:normal;font-stretch:normal;font-size:medium;line-height:normal;font-family:sans-serif;font-variant-ligatures:normal;font-variant-position:normal;font-variant-caps:normal;font-variant-numeric:normal;font-variant-alternates:normal;font-variant-east-asian:normal;font-feature-settings:normal;font-variation-settings:normal;text-indent:0;text-align:start;text-decoration:none;text-decoration-line:none;text-decoration-style:solid;text-decoration-color:#000000;letter-spacing:normal;word-spacing:normal;text-transform:none;writing-mode:lr-tb;direction:ltr;text-orientation:mixed;dominant-baseline:auto;baseline-shift:baseline;text-anchor:start;white-space:normal;shape-padding:0;shape-margin:0;inline-size:0;clip-rule:nonzero;display:inline;overflow:visible;visibility:visible;opacity:1;isolation:auto;mix-blend-mode:normal;color-interpolation:sRGB;color-interpolation-filters:linearRGB;solid-color:#000000;solid-opacity:1;vector-effect:none;fill:#ffffff;fill-opacity:1;fill-rule:evenodd;stroke:none;stroke-width:8;stroke-linecap:butt;stroke-linejoin:miter;stroke-miterlimit:4;stroke-dasharray:none;stroke-dashoffset:0;stroke-opacity:1;paint-order:stroke markers fill;color-rendering:auto;image-rendering:auto;shape-rendering:auto;text-rendering:auto;enable-background:accumulate;stop-color:#000000;stop-opacity:1" />
  <ellipse
     ry="14"
     rx="18"
     cy="280"
     cx="96"
     id="path1064"
     style="fill:#ffffff;fill-opacity:1;fill-rule:evenodd;stroke:none;stroke-width:4;stroke-linecap:butt;stroke-miterlimit:4;stroke-dasharray:none;stroke-opacity:1;paint-order:stroke markers fill" />
  <path
     sodipodi:nodetypes="czzcsczcsc"
     inkscape:connector-curvature="0"
     d="m 12.07233,235.99968 c 18,-6 4,0 10,4 6,4 14,4 20,0 6,-4 -10,-10 10,-4 0,0 2,2 2,8 v 2 c -4,2 -16,6 -22.07233,6 -6.072332,0 -17.92767,-4 -21.92767,-6 v -2 c 0,-6 2,-8 2,-8 z"
     style="opacity:1;fill:#ffffff;fill-opacity:1;fill-rule:evenodd;stroke-width:4;stroke-miterlimit:2;stroke-dasharray:none"
     id="rect1276-8" />
  <path
     sodipodi:nodetypes="czcczcc"
     inkscape:connector-curvature="0"
     d="m 26,219.99968 c 0,0 2,2 6,2 4,0 6,-2 6,-2 l -2,18 c 0,0 0,2 -4,2 -4,0 -4,-2 -4,-2 z"
     style="opacity:1;fill:#ffffff;fill-opacity:1;fill-rule:evenodd;stroke-width:4;stroke-miterlimit:2;stroke-dasharray:none"
     id="rect1279-7" />
  <circle
     r="10"
     cy="209.99968"
     cx="32"
     id="path1107"
     style="fill:#ffffff;fill-opacity:1;fill-rule:evenodd;stroke:none;stroke-width:4;stroke-linecap:butt;stroke-miterlimit:4;stroke-dasharray:none;stroke-opacity:1;paint-order:stroke markers fill" />
  <rect
     y="64"
     x="896"
     height="64"
     width="128"
     id="rect1109"
     style="fill:#ffffff;fill-opacity:1;fill-rule:evenodd;stroke:none;stroke-width:1.41421;stroke-linecap:butt;stroke-miterlimit:4;stroke-dasharray:none;stroke-opacity:1;paint-order:stroke markers fill" />
  <rect
     style="fill:#3f3f3f;fill-opacity:1;fill-rule:evenodd;stroke:none;stroke-width:1.41421;stroke-linecap:butt;stroke-miterlimit:4;stroke-dasharray:none;stroke-opacity:1;paint-order:stroke markers fill"
     id="rect1109-9"
     width="128"
     height="64"
     x="896"
     y="0" />
  <rect
     y="128"
     x="896"
     height="16"
     width="16"
     id="rect3088"
     style="fill:#ff3f7f;fill-opacity:1;fill-rule:evenodd;stroke:none;stroke-width:2;stroke-linecap:butt;stroke-miterlimit:4;stroke-dasharray:none;stroke-opacity:1;paint-order:stroke markers fill" />
  <rect
     y="128"
     x="944"
     height="16"
     width="16"
     id="rect3090"
     style="fill:#bfff5f;fill-opacity:1;fill-rule:evenodd;stroke:none;stroke-width:2;stroke-linecap:butt;stroke-miterlimit:4;stroke-dasharray:none;stroke-opacity:1;paint-order:stroke markers fill" />
  <rect
     y="144"
     x="944"
     height="16"
     width="16"
     id="rect3092"
     style="fill:#3fff6f;fill-opacity:1;fill-rule:evenodd;stroke:none;stroke-width:2;stroke-linecap:butt;stroke-miterlimit:4;stroke-dasharray:none;stroke-opacity:1;paint-order:stroke markers fill" />
  <rect
     style="fill:#3fbfff;fill-opacity:1;fill-rule:evenodd;stroke:none;stroke-width:2;stroke-linecap:butt;stroke-miterlimit:4;stroke-dasharray:none;stroke-opacity:1;paint-order:stroke markers fill"
     id="rect3090-3"
     width="16"
     height="16"
     x="896"
     y="144" />
  <rect
     y="144"
     x="912"
     height="16"
     width="16"
     id="rect3090-3-7"
     style="fill:#00efff;fill-opacity:1;fill-rule:evenodd;stroke:none;stroke-width:2;stroke-linecap:butt;stroke-miterlimit:4;stroke-dasharray:none;stroke-opacity:1;paint-order:stroke markers fill" />
  <rect
     y="128"
     x="912"
     height="16"
     width="16"
     id="rect3090-3-4"
     style="fill:#ff9f3f;fill-opacity:1;fill-rule:evenodd;stroke:none;stroke-width:2;stroke-linecap:butt;stroke-miterlimit:4;stroke-dasharray:none;stroke-opacity:1;paint-order:stroke markers fill" />
  <rect
     style="fill:#ffef3f;fill-opacity:1;fill-rule:evenodd;stroke:none;stroke-width:2;stroke-linecap:butt;stroke-miterlimit:4;stroke-dasharray:none;stroke-opacity:1;paint-order:stroke markers fill"
     id="rect3090-3-4-8"
     width="16"
     height="16"
     x="928"
     y="128" />
  <rect
     y="160"
     x="896"
     height="16"
     width="16"
     id="rect3090-3-9"
     style="fill:#3f7fff;fill-opacity:1;fill-rule:evenodd;stroke:none;stroke-width:2;stroke-linecap:butt;stroke-miterlimit:4;stroke-dasharray:none;stroke-opacity:1;paint-order:stroke markers fill" />
  <rect
     style="fill:#7f4fff;fill-opacity:1;fill-rule:evenodd;stroke:none;stroke-width:2;stroke-linecap:butt;stroke-miterlimit:4;stroke-dasharray:none;stroke-opacity:1;paint-order:stroke markers fill"
     id="rect3090-3-9-6"
     width="16"
     height="16"
     x="912"
     y="160" />
  <rect
     y="160"
     x="928"
     height="16"
     width="16"
     id="rect3090-3-9-6-0"
     style="fill:#bf20ff;fill-opacity:1;fill-rule:evenodd;stroke:none;stroke-width:2;stroke-linecap:butt;stroke-miterlimit:4;stroke-dasharray:none;stroke-opacity:1;paint-order:stroke markers fill" />
  <rect
     style="fill:#ff20ff;fill-opacity:1;fill-rule:evenodd;stroke:none;stroke-width:2;stroke-linecap:butt;stroke-miterlimit:4;stroke-dasharray:none;stroke-opacity:1;paint-order:stroke markers fill"
     id="rect3090-3-9-6-0-5"
     width="16"
     height="16"
     x="944"
     y="160" />
  <rect
     style="fill:#1fe75f;fill-opacity:1;fill-rule:evenodd;stroke:none;stroke-width:2;stroke-linecap:butt;stroke-miterlimit:4;stroke-dasharray:none;stroke-opacity:1;paint-order:stroke markers fill"
     id="rect3092-9"
     width="16"
     height="16"
     x="928"
     y="144" />
  <rect
     y="176"
     x="896"
     height="16"
     width="16"
     id="rect3250"
     style="fill:#6c5367;fill-opacity:1;fill-rule:evenodd;stroke:none;stroke-width:2;stroke-linecap:butt;stroke-miterlimit:4;stroke-dasharray:none;stroke-opacity:1;paint-order:stroke markers fill" />
  <rect
     y="176"
     x="912"
     height="16"
     width="16"
     id="rect3252"
     style="fill:#916f8a;fill-opacity:1;fill-rule:evenodd;stroke:none;stroke-width:2;stroke-linecap:butt;stroke-miterlimit:4;stroke-dasharray:none;stroke-opacity:1;paint-order:stroke markers fill" />
  <rect
     y="176"
     x="928"
     height="16"
     width="16"
     id="rect3254"
     style="fill:#ac93a7;fill-opacity:1;fill-rule:evenodd;stroke:none;stroke-width:2;stroke-linecap:butt;stroke-miterlimit:4;stroke-dasharray:none;stroke-opacity:1;paint-order:stroke markers fill" />
  <rect
     y="176"
     x="944"
     height="16"
     width="16"
     id="rect3256"
     style="fill:#c8b7c4;fill-opacity:1;fill-rule:evenodd;stroke:none;stroke-width:2;stroke-linecap:butt;stroke-miterlimit:4;stroke-dasharray:none;stroke-opacity:1;paint-order:stroke markers fill" />
  <rect
     inkscape:export-ydpi="96"
     inkscape:export-xdpi="96"
     y="128"
     x="960"
     height="64"
     width="64"
     id="rect3258"
     style="fill:#000000;fill-opacity:1;fill-rule:evenodd;stroke:none;stroke-width:2;stroke-linecap:butt;stroke-miterlimit:4;stroke-dasharray:none;stroke-opacity:1;paint-order:stroke markers fill" />
  <rect
     y="960"
     x="896"
     height="64"
     width="32"
     id="rect3299"
     style="fill:url(#radialGradient3309);fill-opacity:1;fill-rule:evenodd;stroke:none;stroke-width:2;stroke-linecap:butt;stroke-miterlimit:4;stroke-dasharray:none;stroke-opacity:1;paint-order:stroke markers fill" />
  <path
     inkscape:connector-curvature="0"
     id="path3311"
     d="m 928,960 32,64 h 32 l 32,-64 z"
     style="fill:url(#radialGradient3321);stroke:#000000;stroke-width:1px;stroke-linecap:butt;stroke-linejoin:miter;stroke-opacity:1;fill-opacity:1" />
  <path
     sodipodi:nodetypes="zzzsz"
     inkscape:connector-curvature="0"
     d="m 46,272 c 0,6 -5.581722,12 -14,12 -8.418278,0 -14,-6 -14,-12 0,-6 5.163444,-12 14,-12 8.836556,0 14,6 14,12 z"
     style="opacity:1;fill:#ffffff;fill-opacity:1;fill-rule:evenodd;stroke-width:4;stroke-miterlimit:2;stroke-dasharray:none"
     id="path1266-8" />
  <path
     sodipodi:nodetypes="czzcsczcsc"
     inkscape:connector-curvature="0"
     d="m 12,300 c 18,-6 4,0 10,4 6,4 14,4 20,0 6,-4 -10,-10 10,-4 0,0 2,2 2,8 v 2 c -4,2 -16,6 -22.07233,6 C 25.855338,316 14,312 10,310 v -2 c 0,-6 2,-8 2,-8 z"
     style="opacity:1;fill:#ffffff;fill-opacity:1;fill-rule:evenodd;stroke-width:4;stroke-miterlimit:2;stroke-dasharray:none"
     id="rect1276-1" />
  <path
     sodipodi:nodetypes="czcczcc"
     inkscape:connector-curvature="0"
     d="m 24,284 c 0,0 2,2 8,2 6,0 8,-2 8,-2 l -2,16 c 0,0 0,4 -6,4 -6,0 -6,-4 -6,-4 z"
     style="opacity:1;fill:#ffffff;fill-opacity:1;fill-rule:evenodd;stroke-width:4;stroke-miterlimit:2;stroke-dasharray:none"
     id="rect1279-2" />
  <path
     fill-rule="evenodd"
     stroke="#ffffff"
     stroke-width="4"
     stroke-opacity="1"
     clip-path="none"
     d="m 454,8 50,-2 c 0,0 2,24.000002 2,40 l -8,10 -42,1.999998 C 456,57.999998 454,32 454,16 Z"
     id="path62-6"
     style="opacity:1;fill:none;fill-opacity:1;fill-rule:evenodd;stroke-width:4;stroke-miterlimit:2;stroke-dasharray:none"
     inkscape:connector-curvature="0"
     sodipodi:nodetypes="ccccczc" />
  <path
     sodipodi:nodetypes="ccccccccc"
     inkscape:connector-curvature="0"
     d="m 454,8 50,-2 2,40 -8,10 V 36 h -34 v 22 h -8 z"
     style="fill:#ffffff;fill-opacity:1;fill-rule:evenodd;stroke:none;stroke-width:2;stroke-linecap:butt;stroke-miterlimit:4;stroke-dasharray:none;stroke-opacity:1;paint-order:stroke markers fill"
     id="rect3359" />
  <path
     inkscape:transform-center-y="-2"
     inkscape:transform-center-x="2"
     sodipodi:nodetypes="ccccc"
     inkscape:connector-curvature="0"
     d="M 496,53 H 486 V 38 h 10 z"
     style="fill:#ffffff;fill-opacity:1;fill-rule:evenodd;stroke:none;stroke-width:2;stroke-linecap:butt;stroke-miterlimit:4;stroke-dasharray:none;stroke-opacity:1;paint-order:stroke markers fill"
     id="rect3362" />
  <circle
     r="26"
     cy="96"
     cx="480"
     id="path3365"
     style="fill:#000000;fill-opacity:1;fill-rule:evenodd;stroke:#ffffff;stroke-width:4;stroke-linecap:butt;stroke-miterlimit:4;stroke-dasharray:none;stroke-opacity:1;paint-order:markers fill stroke" />
  <path
     d="M 474.30598,117.25037 A 22,22 0 0 1 459.32676,103.52444 L 480,96 Z"
     sodipodi:arc-type="slice"
     sodipodi:end="2.7925268"
     sodipodi:start="1.8325957"
     sodipodi:ry="22"
     sodipodi:rx="22"
     sodipodi:cy="96"
     sodipodi:cx="480"
     sodipodi:type="arc"
     id="path3367"
     style="fill:#f8ffff;fill-opacity:1;fill-rule:evenodd;stroke:none;stroke-width:4;stroke-linecap:butt;stroke-miterlimit:4;stroke-dasharray:none;stroke-opacity:1;paint-order:markers fill stroke" />
  <path
     transform="rotate(175.51703)"
     style="fill:#f8ffff;fill-opacity:1;fill-rule:evenodd;stroke:none;stroke-width:4;stroke-linecap:butt;stroke-miterlimit:4;stroke-dasharray:none;stroke-opacity:1;paint-order:markers fill stroke"
     id="path3367-6"
     sodipodi:type="arc"
     sodipodi:cx="-471.02786"
     sodipodi:cy="-133.22443"
     sodipodi:rx="22"
     sodipodi:ry="22"
     sodipodi:start="1.8325957"
     sodipodi:end="2.7925268"
     sodipodi:arc-type="slice"
     d="m -476.72188,-111.97406 a 22,22 0 0 1 -14.97922,-13.72592 l 20.67324,-7.52445 z" />
  <path
     style="fill:#f8ffff;fill-opacity:1;fill-rule:evenodd;stroke:none;stroke-width:4;stroke-linecap:butt;stroke-miterlimit:4;stroke-dasharray:none;stroke-opacity:1;paint-order:markers fill stroke"
     id="path3367-7"
     sodipodi:type="arc"
     sodipodi:cx="480"
     sodipodi:cy="96"
     sodipodi:rx="22"
     sodipodi:ry="22"
     sodipodi:start="1.3089969"
     sodipodi:end="1.5707963"
     sodipodi:arc-type="slice"
     d="M 485.69402,117.25037 A 22,22 0 0 1 480,118 V 96 Z" />
  <path
     d="M 474.30598,74.749632 A 22,22 0 0 1 480,74 v 22 z"
     sodipodi:arc-type="slice"
     sodipodi:end="4.712389"
     sodipodi:start="4.4505896"
     sodipodi:ry="22"
     sodipodi:rx="22"
     sodipodi:cy="96"
     sodipodi:cx="480"
     sodipodi:type="arc"
     id="path3367-7-5"
     style="fill:#f8ffff;fill-opacity:1;fill-rule:evenodd;stroke:none;stroke-width:4;stroke-linecap:butt;stroke-miterlimit:4;stroke-dasharray:none;stroke-opacity:1;paint-order:markers fill stroke" />
  <circle
     r="4"
     cy="96"
     cx="480"
     id="path3414"
     style="fill:#000000;fill-opacity:1;fill-rule:evenodd;stroke:#ffffff;stroke-width:3;stroke-linecap:butt;stroke-miterlimit:4;stroke-dasharray:none;stroke-opacity:1;paint-order:markers fill stroke" />
  <path
     id="rect1429-0-3"
     style="opacity:1;fill:#ffffff;fill-opacity:1;fill-rule:evenodd;stroke:none;stroke-width:4;stroke-miterlimit:2;stroke-dasharray:none;stroke-opacity:1"
     d="m 444,52 c 0,3.967197 -36,6.032485 -36,0.03249 0,-6 36,-3.999682 36,-0.03249 z"
     inkscape:connector-curvature="0"
     sodipodi:nodetypes="zzz" />
  <path
     sodipodi:nodetypes="csssscc"
     inkscape:connector-curvature="0"
     id="path3456"
     d="M 457.42979,6.5659288 458,26 c 0.0587,1.99914 2,4 4,4 h 34 c 2,0 4,-2 4,-4 V 4.872604 Z"
     style="fill:none;stroke:#000000;stroke-width:2;stroke-linecap:butt;stroke-linejoin:miter;stroke-miterlimit:4;stroke-dasharray:none;stroke-opacity:1" />
  <path
     sodipodi:nodetypes="cc"
     inkscape:connector-curvature="0"
     id="path3458"
     d="m 463.82975,13.748639 c 12.43976,-1.698325 20.81798,2.816976 30.76403,-1.180067"
     style="fill:none;stroke:#000000;stroke-width:3;stroke-linecap:butt;stroke-linejoin:miter;stroke-miterlimit:4;stroke-dasharray:none;stroke-opacity:1" />
  <path
     sodipodi:nodetypes="cc"
     inkscape:connector-curvature="0"
     id="path3460"
     d="m 464.65344,22.615134 c 10.7578,-4.147855 21.68646,1.395719 30.18875,-0.280034"
     style="fill:none;stroke:#000000;stroke-width:3;stroke-linecap:butt;stroke-linejoin:miter;stroke-miterlimit:4;stroke-dasharray:none;stroke-opacity:1" />
</svg>
