<?xml version="1.0" encoding="UTF-8" standalone="no"?>
<svg
   xmlns:osb="http://www.openswatchbook.org/uri/2009/osb"
   xmlns:dc="http://purl.org/dc/elements/1.1/"
   xmlns:cc="http://creativecommons.org/ns#"
   xmlns:rdf="http://www.w3.org/1999/02/22-rdf-syntax-ns#"
   xmlns:svg="http://www.w3.org/2000/svg"
   xmlns="http://www.w3.org/2000/svg"
   xmlns:xlink="http://www.w3.org/1999/xlink"
   xmlns:sodipodi="http://sodipodi.sourceforge.net/DTD/sodipodi-0.dtd"
   xmlns:inkscape="http://www.inkscape.org/namespaces/inkscape"
   inkscape:export-ydpi="96"
   inkscape:export-xdpi="96"
   inkscape:export-filename="D:\SYNC\Projects\UNITY\Logic Gates\Assets\Images\gates.png"
   width="1024px"
   height="1024px"
   version="1.1"
   id="svg77"
   sodipodi:docname="gates.svg"
   inkscape:version="1.0rc1 (09960d6f05, 2020-04-09)">
  <metadata
     id="metadata83">
    <rdf:RDF>
      <cc:Work
         rdf:about="">
        <dc:format>image/svg+xml</dc:format>
        <dc:type
           rdf:resource="http://purl.org/dc/dcmitype/StillImage" />
        <dc:title></dc:title>
      </cc:Work>
    </rdf:RDF>
  </metadata>
  <defs
     id="defs81">
    <inkscape:path-effect
       fuse_tolerance="0"
       hide_knot="false"
       vertical_pattern="false"
       prop_units="false"
       tang_offset="0"
       normal_offset="0"
       spacing="0"
       scale_y_rel="false"
       prop_scale="1"
       copytype="single_stretched"
       pattern="M 0,5 C 0,2.24 2.24,0 5,0 7.76,0 10,2.24 10,5 10,7.76 7.76,10 5,10 2.24,10 0,7.76 0,5 Z"
       lpeversion="1"
       is_visible="true"
       id="path-effect2017"
       effect="skeletal" />
    <linearGradient
       id="linearGradient3305"
       inkscape:collect="always">
      <stop
         id="stop3301"
         offset="0"
         style="stop-color:#ffffff;stop-opacity:1;" />
      <stop
         id="stop3303"
         offset="1"
         style="stop-color:#000000;stop-opacity:1" />
    </linearGradient>
    <linearGradient
       osb:paint="solid"
       id="linearGradient3060">
      <stop
         id="stop3058"
         offset="0"
         style="stop-color:#ffffff;stop-opacity:1;" />
    </linearGradient>
    <inkscape:perspective
       sodipodi:type="inkscape:persp3d"
       inkscape:vp_x="0 : 512 : 1"
       inkscape:vp_y="0 : 1000 : 0"
       inkscape:vp_z="1024 : 512 : 1"
       inkscape:persp3d-origin="512 : 341.33333 : 1"
       id="perspective1337" />
    <linearGradient
       id="linearGradient914"
       osb:paint="solid">
      <stop
         style="stop-color:#ffffff;stop-opacity:1;"
         offset="0"
         id="stop912" />
    </linearGradient>
    <clipPath
       id="cp40-4">
      <path
         id="path59-5"
         d="m 130,35 27,-1 1,14 v 13 l -27,1 -1,-14 c 0,0 0,-13 0,-13 z"
         stroke-opacity="1"
         stroke-width="4"
         stroke="#ffffff"
         fill-rule="evenodd"
         inkscape:connector-curvature="0" />
    </clipPath>
    <radialGradient
       r="30.588187"
       cy="712.89515"
       cx="1390.1277"
       id="P2_1-1"
       gradientTransform="scale(0.69631062,1.4361407)"
       fx="1390.1277"
       fy="712.89515"
       gradientUnits="userSpaceOnUse">
      <stop
         id="stop6-2"
         stop-color="#ffffff"
         offset="0%" />
      <stop
         id="stop8-3"
         stop-opacity="0.75"
         stop-color="#ffffff"
         offset="50.0008%" />
      <stop
         id="stop10-0"
         stop-opacity="0"
         stop-color="#ffffff"
         offset="100%" />
    </radialGradient>
    <linearGradient
       y2="1234.9905"
       x2="829.1562"
       y1="1195.3153"
       x1="829.1562"
       id="P2_3-7"
       gradientTransform="scale(1.2060454,0.8291562)"
       gradientUnits="userSpaceOnUse">
      <stop
         id="stop15-6"
         stop-opacity="0"
         stop-color="#ffffff"
         offset="0%" />
      <stop
         id="stop17-1"
         stop-opacity="0.75"
         stop-color="#ffffff"
         offset="50.0008%" />
      <stop
         id="stop19-9"
         stop-color="#ffffff"
         offset="100%" />
    </linearGradient>
    <clipPath
       id="cp3-6">
      <polygon
         id="polygon22-2"
         points="1024,991 1008,1024 992,1024 976,991 " />
    </clipPath>
    <clipPath
       id="cp40-6">
      <path
         id="path59-1"
         d="m 130,35 27,-1 1,14 v 13 l -27,1 -1,-14 c 0,0 0,-13 0,-13 z"
         stroke-opacity="1"
         stroke-width="4"
         stroke="#ffffff"
         fill-rule="evenodd"
         inkscape:connector-curvature="0" />
    </clipPath>
    <clipPath
       id="cp49-6">
      <path
         id="path68-2"
         d="m 162,35 27,-1 1,14 v 13 l -27,1 -1,-14 c 0,0 0,-13 0,-13 z"
         stroke-opacity="1"
         stroke-width="4"
         stroke="#ffffff"
         fill-rule="evenodd"
         inkscape:connector-curvature="0" />
    </clipPath>
    <radialGradient
       gradientUnits="userSpaceOnUse"
       fy="713.06494"
       fx="1390.1844"
       gradientTransform="matrix(0.78461759,1.6973226e-7,-9.3475434e-5,1.0461549,-122.69654,278.02337)"
       r="30.588187"
       cy="713.06494"
       cx="1390.1844"
       id="P2_1">
      <stop
         id="stop6"
         stop-color="#ffffff"
         offset="0%" />
      <stop
         id="stop8"
         stop-opacity="0.75"
         stop-color="#ffffff"
         offset="50.0008%" />
      <stop
         id="stop10"
         stop-opacity="0"
         stop-color="#ffffff"
         offset="100%" />
    </radialGradient>
    <linearGradient
       gradientUnits="userSpaceOnUse"
       gradientTransform="scale(1.2060454,0.8291562)"
       y2="1234.9905"
       x2="829.15619"
       y1="1195.1909"
       x1="829.15619"
       id="P2_3">
      <stop
         id="stop15"
         stop-opacity="0"
         stop-color="#ffffff"
         offset="0%" />
      <stop
         id="stop17"
         stop-opacity="0.75"
         stop-color="#ffffff"
         offset="50.0008%" />
      <stop
         id="stop19"
         stop-color="#ffffff"
         offset="100%" />
    </linearGradient>
    <clipPath
       id="cp3">
      <polygon
         id="polygon22"
         points="976,991 1024,991 1008,1024 992,1024" />
    </clipPath>
    <clipPath
       id="cp49">
      <path
         id="path68"
         d="M 162 35 L 189 34 L 190 48 L 190 61 L 163 62 L 162 48 C 162 48 162 35 162 35 z"
         stroke-opacity="1"
         stroke-width="4"
         stroke="#ffffff"
         fill-rule="evenodd" />
    </clipPath>
    <clipPath
       id="cp3-3">
      <polygon
         points="1024,991 1008,1024 992,1024 976,991 "
         id="polygon22-27" />
    </clipPath>
    <radialGradient
       gradientUnits="userSpaceOnUse"
       gradientTransform="matrix(3.9999876,3.6293835e-7,-2.9633054e-7,4,-2678.2491,-3872.0003)"
       r="16"
       fy="1000"
       fx="917.56525"
       cy="1000"
       cx="917.56525"
       id="radialGradient3309"
       xlink:href="#linearGradient3305"
       inkscape:collect="always" />
    <linearGradient
       gradientUnits="userSpaceOnUse"
       y2="960"
       x2="896"
       y1="960"
       x1="768"
       id="linearGradient1787"
       xlink:href="#linearGradient3305"
       inkscape:collect="always" />
  </defs>
  <sodipodi:namedview
     inkscape:document-rotation="0"
     pagecolor="#402060"
     bordercolor="#666666"
     borderopacity="1"
     objecttolerance="10"
     gridtolerance="10000"
     guidetolerance="10"
     inkscape:pageopacity="0"
     inkscape:pageshadow="2"
     inkscape:window-width="1920"
     inkscape:window-height="1057"
     id="namedview79"
     showgrid="true"
     inkscape:snap-page="true"
     inkscape:snap-grids="true"
     inkscape:snap-path-clip="true"
     inkscape:snap-object-midpoints="true"
     inkscape:snap-to-guides="false"
     inkscape:snap-center="false"
     inkscape:snap-smooth-nodes="true"
     inkscape:pagecheckerboard="true"
     inkscape:zoom="1.8721591"
     inkscape:cx="194.82972"
     inkscape:cy="173.09927"
     inkscape:window-x="-8"
     inkscape:window-y="403"
     inkscape:window-maximized="1"
     inkscape:current-layer="svg77">
    <inkscape:grid
       type="xygrid"
       id="grid908"
       dotted="false"
       snapvisiblegridlinesonly="false"
       spacingx="2"
       spacingy="2"
       empspacing="8"
       empcolor="#ff003f"
       empopacity="0.30196078"
       visible="true"
       color="#3fffff"
       opacity="0.1254902" />
  </sodipodi:namedview>
  <rect
     y="0"
     x="0.37279513"
     height="1024"
     width="895.6272"
     id="rect3260"
     style="fill:#000000;fill-opacity:1;fill-rule:evenodd;stroke:none;stroke-width:3.74088;stroke-linecap:butt;stroke-miterlimit:4;stroke-dasharray:none;stroke-opacity:1;paint-order:stroke markers fill" />
  <path
     sodipodi:nodetypes="sczszcs"
     inkscape:connector-curvature="0"
     style="stroke:none;stroke-width:3.21112"
     id="path29"
     d="M 20,64 C 20,46.33889 17.60555,29.633332 16,20 h 40 c 6.422222,0 47.66794,-4.166667 47.66794,44 0,48.16666 -41.245716,44 -47.66794,44 H 16 c 1.60555,-9.633334 4,-26.338888 4,-44 z"
     fill="#ffffff"
     fill-rule="evenodd" />
  <path
     sodipodi:nodetypes="csccscc"
     inkscape:connector-curvature="0"
     style="stroke:none;stroke-width:3.21428"
     id="path31"
     d="M 159.14285,96.142856 C 165.57143,89.714286 172,76.857142 172,64 172,51.142856 165.57143,38.285714 159.14285,31.857142 146.28572,19 139.85714,19 162.35715,19 c 25.71428,0 70.71427,12.857142 70.71427,45 0,32.142856 -44.99999,45 -70.71427,45 -22.50001,0 -16.07143,0 -3.2143,-12.857144 z"
     fill="#ffffff"
     fill-rule="evenodd" />
  <path
     sodipodi:nodetypes="szzszzs"
     inkscape:connector-curvature="0"
     style="stroke:none;stroke-width:3.21428"
     id="path33"
     d="M 293.28572,64 C 293.28572,31.857142 277.21428,25.42857 274,22.214284 270.78572,19 270.78572,19 277.21428,19 c 6.42858,0 35.35714,6.42857 35.35714,45 0,38.57143 -28.92856,45 -35.35714,45 -6.42856,0 -6.42856,0 -3.21428,-3.21428 3.21428,-3.21429 19.28572,-9.642864 19.28572,-41.78572 z"
     fill="#ffffff"
     fill-rule="evenodd" />
  <path
     sodipodi:nodetypes="zszsssz"
     inkscape:connector-curvature="0"
     style="stroke:none;stroke-width:3.21428"
     id="path35"
     d="M 306.14286,99.357142 C 315.78572,89.714286 319,76.857142 319,64 319,51.142856 315.78572,38.285714 306.14286,28.642856 296.5,19 293.28572,19 306.14286,19 331.85714,19 364,38.285714 364,64 c 0,25.714286 -32.14286,45 -57.85714,45 -12.85714,0 -9.64286,0 0,-9.642858 z"
     fill="#ffffff"
     fill-rule="evenodd" />
  <path
     sodipodi:nodetypes="sszss"
     inkscape:connector-curvature="0"
     style="stroke:none;stroke-width:3.27802"
     id="path37"
     d="m 400,64 c 0,-39.336228 0.4689,-41.77108 6.55604,-39.336228 C 472.11642,50.887924 491.78452,60.72198 491.78452,64 c 0,3.278018 -19.6681,13.112076 -85.22848,39.33622 C 400.4689,105.77108 400,103.33622 400,64 Z"
     fill="#ffffff"
     fill-rule="evenodd" />
  <path
     sodipodi:nodetypes="scccccccs"
     inkscape:connector-curvature="0"
     style="stroke:none;stroke-width:3.21428"
     id="path39"
     d="m 20,192 c 0,-17.67857 -2.39286,-34.35715 -4,-44 h 48 c 0,0 29.571428,0.64285 35.999998,36 L 92,192 c 0,0 9.23409,8.40846 7.999998,8 C 93.571428,235.35714 64,236 64,236 H 16 c 1.60714,-9.64286 4,-26.32142 4,-44 z"
     fill="#ffffff"
     fill-rule="evenodd" />
  <path
     sodipodi:nodetypes="csccccccc"
     inkscape:connector-curvature="0"
     style="stroke:none;stroke-width:3.21428"
     id="path41"
     d="M 159.14285,224.14286 C 165.57143,217.71428 172,204.85714 172,192 172,179.14285 165.57143,166.28571 159.14285,159.85714 146.28572,147 139.85714,147 162.35715,147 c 25.71428,0 51.42857,12.85714 57.85713,35.35714 L 213.78572,192 l 6.42856,9.64286 C 213.78572,224.14286 188.07143,237 162.35715,237 c -22.50001,0 -16.07143,0 -3.2143,-12.85714 z"
     fill="#ffffff"
     fill-rule="evenodd" />
  <path
     sodipodi:nodetypes="zszscccsz"
     inkscape:connector-curvature="0"
     style="stroke:none;stroke-width:3.21428"
     id="path45"
     d="m 305.85714,227.35714 c 9.64286,-9.64286 12.85714,-22.5 12.85714,-35.35714 0,-12.85715 -3.21428,-25.71429 -12.85714,-35.35714 C 296.21428,147 293,147 305.85714,147 c 19.28572,0 37.8895,16.85845 45,32.14285 3.21428,6.42858 -6.42858,12.85715 -6.42858,12.85715 0,0 9.64286,6.42857 6.42858,12.85714 -7.26522,15.16042 -25.71428,32.14286 -45,32.14286 -12.85714,0 -9.64286,0 0,-9.64286 z"
     fill="#ffffff"
     fill-rule="evenodd" />
  <path
     sodipodi:nodetypes="sscccss"
     inkscape:connector-curvature="0"
     style="stroke:none;stroke-width:3.27494"
     id="path47"
     d="m 400,192 c 0,-39.29932 0.51328,-41.84105 6.54988,-39.29932 62.22394,26.19955 68.77382,32.74943 68.77382,32.74943 L 472.04876,192 l 3.27494,6.54989 c 0,0 -6.54988,6.54989 -68.77382,32.74943 C 400.51328,233.84104 400,231.29932 400,192 Z"
     fill="#ffffff"
     fill-rule="evenodd" />
  <circle
     r="10.588235"
     style="fill:none;fill-opacity:1;stroke:#ffffff;stroke-width:8.82354;stroke-miterlimit:4;stroke-dasharray:none;stroke-opacity:1"
     id="ellipse49"
     stroke-opacity="1"
     stroke-width="2"
     stroke="#ffffff"
     fill="#000000"
     cy="192"
     cx="481.41177" />
  <circle
     r="10.588233"
     cx="353.41177"
     cy="192"
     style="fill:none;stroke-width:8.82354;stroke-miterlimit:4;stroke-dasharray:none"
     id="ellipse51"
     stroke-opacity="1"
     stroke-width="2"
     stroke="#ffffff"
     fill="#000000" />
  <circle
     r="10.588233"
     style="fill:none;stroke-width:8.82354;stroke-miterlimit:4;stroke-dasharray:none"
     id="ellipse53"
     stroke-opacity="1"
     stroke-width="2"
     stroke="#ffffff"
     fill="#000000"
     cy="192"
     cx="225.41177" />
  <circle
     r="10.588233"
     style="fill:none;stroke-width:8.82354;stroke-miterlimit:4;stroke-dasharray:none"
     id="ellipse55"
     stroke-opacity="1"
     stroke-width="2"
     stroke="#ffffff"
     fill="#000000"
     cy="192"
     cx="101.41177" />
  <path
     inkscape:connector-curvature="0"
     style="stroke:none;stroke-width:4"
     id="path57"
     d="m 28,948 32,20 36,-44 3.999998,44 L 56,996 32,984 c 0,0 -4,-36 -4,-36 z"
     fill="#ffffff"
     fill-rule="evenodd" />
  <path
     sodipodi:nodetypes="cczcczc"
     inkscape:connector-curvature="0"
     style="opacity:1;fill:none;fill-opacity:1;fill-rule:evenodd;stroke-width:8;stroke-miterlimit:2;stroke-dasharray:none"
     id="path62"
     d="m 12,912 100,-4 c 0,0 4,52 4,84 v 16 l -100,4 c 0,0 -4,-52 -4,-84 z"
     clip-path="none"
     stroke-opacity="1"
     stroke-width="4"
     stroke="#ffffff"
     fill-rule="evenodd" />
  <path
     inkscape:connector-curvature="0"
     style="stroke:none;stroke-width:4"
     id="path64"
     d="M 672,15.999999 704,52 728,15.999999 752,32 716,64 752,88 736,112 704,76 680,112 656,96 688,64 656,40 c 0,0 16,-24.000001 16,-24.000001 z"
     fill="#ffffff"
     fill-rule="evenodd" />
  <path
     inkscape:connector-curvature="0"
     style="stroke:none;stroke-width:4"
     id="path66"
     d="m 656,184 36,24 56,-64 4,56 -56,40 -36,-20 c 0,0 -4,-36 -4,-36 z"
     fill="#ffffff"
     fill-rule="evenodd" />
  <path
     sodipodi:nodetypes="ccccccccccccc"
     inkscape:connector-curvature="0"
     style="stroke:none;stroke-width:4"
     id="path73"
     d="M 164,924.00064 192,952 208,920.00064 232,932 204,960 232,976.00064 220,1000.0007 192,968 176,1000.0007 152,988 180,960 152,944.00064 Z"
     fill="#ffffff"
     fill-rule="evenodd" />
  <path
     fill-rule="evenodd"
     fill="#ffffff"
     d="M 293,192 C 293,159.85714 276.92856,153.42857 273.71428,150.21428 270.5,147 270.5,147 276.92856,147 c 6.42858,0 35.35716,6.42857 35.35716,45 0,38.57144 -28.92858,45 -35.35716,45 C 270.5,237 270.5,237 273.71428,233.78572 276.92856,230.57144 293,224.14286 293,192 Z"
     id="path33-9"
     style="stroke:none;stroke-width:3.21428"
     inkscape:connector-curvature="0"
     sodipodi:nodetypes="szzszzs" />
  <path
     fill-rule="evenodd"
     stroke="#ffffff"
     stroke-width="4"
     stroke-opacity="1"
     clip-path="none"
     d="m 140,912 100,-4 c 0,0 4,52 4,84 v 16 l -100,4 c 0,0 -4,-52 -4,-84 z"
     id="path62-9"
     style="opacity:1;fill:none;fill-opacity:1;fill-rule:evenodd;stroke-width:8;stroke-miterlimit:2;stroke-dasharray:none"
     inkscape:connector-curvature="0"
     sodipodi:nodetypes="cczcczc" />
  <path
     style="fill:#ffffff;fill-opacity:1;stroke:none;stroke-width:4px;stroke-linecap:butt;stroke-linejoin:miter;stroke-opacity:1"
     d="m 268,343.99936 h 108 l -4,28 c -55.83774,-15.26512 -61.8777,0 -100,0 z"
     id="path1303"
     inkscape:connector-curvature="0"
     sodipodi:nodetypes="ccccc" />
  <path
     id="rect1353"
     style="opacity:1;fill:#ffffff;fill-opacity:1;fill-rule:evenodd;stroke:none;stroke-width:4;stroke-miterlimit:2;stroke-dasharray:none;stroke-opacity:1"
     d="m 300,263.99936 52,28 -28,48 -47.99998,-23.99998 z"
     inkscape:connector-curvature="0"
     sodipodi:nodetypes="ccccc" />
  <path
     id="rect1355"
     style="opacity:1;fill:#ffffff;fill-opacity:1;fill-rule:evenodd;stroke:none;stroke-width:4;stroke-miterlimit:2;stroke-dasharray:none;stroke-opacity:1"
     d="m 348,315.99936 12,-4 -4,12 -24,12 z"
     inkscape:connector-curvature="0"
     sodipodi:nodetypes="ccccc" />
  <path
     id="rect1357"
     style="opacity:1;fill:#ffffff;fill-opacity:1;fill-rule:evenodd;stroke:none;stroke-width:4;stroke-miterlimit:2;stroke-dasharray:none;stroke-opacity:1"
     d="m 356,331.99936 8,4 -8,4 h -20 z"
     inkscape:connector-curvature="0"
     sodipodi:nodetypes="ccccc" />
  <circle
     cy="63.999367"
     cx="796"
     id="path1362-7"
     style="opacity:1;fill:none;fill-opacity:1;fill-rule:evenodd;stroke:#ffffff;stroke-width:8;stroke-miterlimit:2;stroke-dasharray:none;stroke-opacity:1"
     r="12.000001" />
  <circle
     r="12.000001"
     style="opacity:1;fill:none;fill-opacity:1;fill-rule:evenodd;stroke:#ffffff;stroke-width:8;stroke-miterlimit:2;stroke-dasharray:none;stroke-opacity:1"
     id="path1362-7-7"
     cx="796"
     cy="103.99935" />
  <path
     style="color:#000000;font-style:normal;font-variant:normal;font-weight:normal;font-stretch:normal;font-size:medium;line-height:normal;font-family:sans-serif;font-variant-ligatures:normal;font-variant-position:normal;font-variant-caps:normal;font-variant-numeric:normal;font-variant-alternates:normal;font-variant-east-asian:normal;font-feature-settings:normal;font-variation-settings:normal;text-indent:0;text-align:start;text-decoration:none;text-decoration-line:none;text-decoration-style:solid;text-decoration-color:#000000;letter-spacing:normal;word-spacing:normal;text-transform:none;writing-mode:lr-tb;direction:ltr;text-orientation:mixed;dominant-baseline:auto;baseline-shift:baseline;text-anchor:start;white-space:normal;shape-padding:0;shape-margin:0;inline-size:0;clip-rule:nonzero;display:inline;overflow:visible;visibility:visible;opacity:1;isolation:auto;mix-blend-mode:normal;color-interpolation:sRGB;color-interpolation-filters:linearRGB;solid-color:#000000;solid-opacity:1;vector-effect:none;fill:#ffffff;fill-opacity:1;fill-rule:evenodd;stroke:none;stroke-width:8;stroke-linecap:butt;stroke-linejoin:miter;stroke-miterlimit:2;stroke-dasharray:none;stroke-dashoffset:0;stroke-opacity:1;color-rendering:auto;image-rendering:auto;shape-rendering:auto;text-rendering:auto;enable-background:accumulate;stop-color:#000000;stop-opacity:1"
     d="m 808,7.9993634 h -20 c -8.94428,0 -8,11.8800266 -8,16.0000006 0,4.936122 -0.94428,16 8,16 h 20 c 8.78916,0 16,-7.210822 16,-16 0,-8.789178 -7.21084,-16.0000006 -16,-16.0000006 z m 0,7.9999996 c 4.46564,0 8,3.534344 8,8.000001 0,4.465656 -3.53436,8 -8,8 -4.46564,0 -8,-3.534344 -8,-8 0,-4.465657 3.53436,-8.000001 8,-8.000001 z"
     id="path1427"
     inkscape:connector-curvature="0"
     sodipodi:nodetypes="ssssssssssss" />
  <path
     id="rect1429"
     style="opacity:1;fill:#ffffff;fill-opacity:1;fill-rule:evenodd;stroke:none;stroke-width:8;stroke-miterlimit:2;stroke-dasharray:none;stroke-opacity:1"
     d="m 832,15.999363 c 4,-3.999999 56,-3.999363 56,0 v 16.000001 c 0,4.000636 -52,4 -56,0 -4,-4 -4,-12 0,-16.000001 z"
     inkscape:connector-curvature="0"
     sodipodi:nodetypes="zcczz" />
  <path
     sodipodi:nodetypes="zzz"
     inkscape:connector-curvature="0"
     d="m 888,63.934394 c 0,7.934394 -72,12.06497 -72,0.06498 0,-12 72,-7.999364 72,-0.06498 z"
     style="opacity:1;fill:#ffffff;fill-opacity:1;fill-rule:evenodd;stroke:none;stroke-width:8;stroke-miterlimit:2;stroke-dasharray:none;stroke-opacity:1"
     id="rect1429-0" />
  <path
     style="fill:#ffffff;fill-opacity:1;stroke:none;stroke-width:4px;stroke-linecap:butt;stroke-linejoin:miter;stroke-opacity:1"
     d="m 436,359.99936 c 4,-8 8,-36 8,-36 h 8 c 0,0 4,28 8,36 h 24 l -4,16 h -64 l -4,-16 z"
     id="path1462"
     inkscape:connector-curvature="0"
     sodipodi:nodetypes="ccccccccc" />
  <path
     style="opacity:1;fill:none;fill-opacity:1;fill-rule:evenodd;stroke:#ffffff;stroke-width:8;stroke-linecap:square;stroke-miterlimit:4;stroke-dasharray:none;stroke-opacity:1"
     id="path1509"
     sodipodi:type="arc"
     sodipodi:cx="448"
     sodipodi:cy="315.99936"
     sodipodi:rx="44"
     sodipodi:ry="43.999359"
     sodipodi:start="2.3561945"
     sodipodi:end="0.78539816"
     sodipodi:arc-type="arc"
     d="m 416.8873,347.1116 a 44,43.999359 0 0 1 0,-62.22449 44,43.999359 0 0 1 62.2254,0 44,43.999359 0 0 1 0,62.22449"
     sodipodi:open="true" />
  <path
     sodipodi:open="true"
     d="m 431.02944,332.96947 a 24,23.999359 0 0 1 0,-33.94022 24,23.999359 0 0 1 33.94112,0 24,23.999359 0 0 1 0,33.94022"
     sodipodi:arc-type="arc"
     sodipodi:end="0.78539816"
     sodipodi:start="2.3561945"
     sodipodi:ry="23.999359"
     sodipodi:rx="24"
     sodipodi:cy="315.99936"
     sodipodi:cx="448"
     sodipodi:type="arc"
     id="path1509-3"
     style="opacity:1;fill:none;fill-opacity:1;fill-rule:evenodd;stroke:#ffffff;stroke-width:8.8;stroke-linecap:square;stroke-miterlimit:4;stroke-dasharray:none;stroke-opacity:1" />
  <path
     sodipodi:open="true"
     d="M 621.87251,280.11927 A 56,55.999359 0 0 1 576,303.99872 56,55.999359 0 0 1 530.12749,280.11927"
     sodipodi:arc-type="arc"
     sodipodi:end="2.5307274"
     sodipodi:start="0.61086524"
     sodipodi:ry="55.999359"
     sodipodi:rx="56"
     sodipodi:cy="247.99936"
     sodipodi:cx="576"
     sodipodi:type="arc"
     id="path957"
     style="fill:none;fill-opacity:1;stroke:#ffffff;stroke-width:8;stroke-linecap:butt;stroke-miterlimit:4;stroke-dasharray:none;stroke-opacity:1" />
  <path
     style="fill:none;fill-opacity:1;stroke:#ffffff;stroke-width:8;stroke-linecap:butt;stroke-miterlimit:4;stroke-dasharray:none;stroke-opacity:1"
     id="path957-2"
     sodipodi:type="arc"
     sodipodi:cx="576"
     sodipodi:cy="247.99936"
     sodipodi:rx="36"
     sodipodi:ry="35.999359"
     sodipodi:start="0.61086524"
     sodipodi:end="2.5307274"
     sodipodi:arc-type="arc"
     d="M 605.48947,268.64774 A 36,35.999359 0 0 1 576,283.99872 36,35.999359 0 0 1 546.51053,268.64774"
     sodipodi:open="true" />
  <path
     sodipodi:nodetypes="ccccccc"
     inkscape:connector-curvature="0"
     id="path1020"
     d="m 544,367.99936 h 64 l -4,-16 h -8 c 8,16.00064 -44,16.00064 -36,0 h -12 z"
     style="fill:#ffffff;fill-opacity:1;stroke:none;stroke-width:4px;stroke-linecap:butt;stroke-linejoin:miter;stroke-opacity:1" />
  <circle
     r="8"
     cy="303.99936"
     cx="576"
     id="path1024"
     style="fill:#ffffff;fill-opacity:1;fill-rule:evenodd;stroke:#000000;stroke-width:16;stroke-linecap:butt;stroke-miterlimit:4;stroke-dasharray:none;stroke-opacity:1;paint-order:stroke markers fill" />
  <path
     sodipodi:nodetypes="ccccccccccccc"
     inkscape:connector-curvature="0"
     id="path1022"
     d="m 552,312 -12,-6.4e-4 c 0,14.12634 8,28 28,32 l -4,8 h 24 l -4,-8 c 20,-4 28,-17.92512 28,-32 L 600,312 c -12,8 -16,7.99936 -16,7.99936 l -4,-12 h -8 l -4,12 c 0,0 -4,6.4e-4 -16,-7.99936 z"
     style="fill:#ffffff;fill-opacity:1;stroke:none;stroke-width:4px;stroke-linecap:butt;stroke-linejoin:miter;stroke-opacity:1" />
  <path
     sodipodi:open="true"
     d="M 600.24871,310 A 28,20 0 0 1 576,320 28,20 0 0 1 551.75129,310"
     sodipodi:arc-type="arc"
     sodipodi:end="2.6179939"
     sodipodi:start="0.52359878"
     sodipodi:ry="20"
     sodipodi:rx="28"
     sodipodi:cy="300"
     sodipodi:cx="576"
     sodipodi:type="arc"
     style="fill:none;fill-opacity:1;fill-rule:evenodd;stroke:#000000;stroke-width:4;stroke-linecap:butt;stroke-miterlimit:4;stroke-dasharray:none;stroke-opacity:1;paint-order:stroke fill markers"
     id="path1024-8" />
  <path
     sodipodi:nodetypes="ssssscccscccs"
     inkscape:connector-curvature="0"
     id="path1075"
     d="m 172,272.00062 c -36,0 -36,24.7204 -36,52 0,48 0,48 56,48 56,0 56,0 56,-48 0,-27.2796 0,-52 -36,-52 -4,0 0,4 0,4 16,8 20,16 20,28 v 20 c 0,16.90316 -17.09326,28 -40,28 -22.90673,0 -40,-11.09684 -40,-28 v -20 c 0,-12 4,-20 20,-28 0,0 4,-4 0,-4 z"
     style="color:#000000;font-style:normal;font-variant:normal;font-weight:normal;font-stretch:normal;font-size:medium;line-height:normal;font-family:sans-serif;font-variant-ligatures:normal;font-variant-position:normal;font-variant-caps:normal;font-variant-numeric:normal;font-variant-alternates:normal;font-variant-east-asian:normal;font-feature-settings:normal;font-variation-settings:normal;text-indent:0;text-align:start;text-decoration:none;text-decoration-line:none;text-decoration-style:solid;text-decoration-color:#000000;letter-spacing:normal;word-spacing:normal;text-transform:none;writing-mode:lr-tb;direction:ltr;text-orientation:mixed;dominant-baseline:auto;baseline-shift:baseline;text-anchor:start;white-space:normal;shape-padding:0;shape-margin:0;inline-size:0;clip-rule:nonzero;display:inline;overflow:visible;visibility:visible;opacity:1;isolation:auto;mix-blend-mode:normal;color-interpolation:sRGB;color-interpolation-filters:linearRGB;solid-color:#000000;solid-opacity:1;vector-effect:none;fill:#ffffff;fill-opacity:1;fill-rule:evenodd;stroke:none;stroke-width:16;stroke-linecap:butt;stroke-linejoin:miter;stroke-miterlimit:4;stroke-dasharray:none;stroke-dashoffset:0;stroke-opacity:1;paint-order:stroke markers fill;color-rendering:auto;image-rendering:auto;shape-rendering:auto;text-rendering:auto;enable-background:accumulate;stop-color:#000000;stop-opacity:1" />
  <ellipse
     ry="28"
     rx="36"
     cy="304"
     cx="192"
     id="path1064"
     style="fill:#ffffff;fill-opacity:1;fill-rule:evenodd;stroke:none;stroke-width:8;stroke-linecap:butt;stroke-miterlimit:4;stroke-dasharray:none;stroke-opacity:1;paint-order:stroke markers fill" />
  <rect
     y="64"
     x="896"
     height="64"
     width="64"
     id="rect1109"
     style="fill:#ffffff;fill-opacity:1;fill-rule:evenodd;stroke:none;stroke-width:0.999997;stroke-linecap:butt;stroke-miterlimit:4;stroke-dasharray:none;stroke-opacity:1;paint-order:stroke markers fill" />
  <rect
     style="fill:#3f3f3f;fill-opacity:1;fill-rule:evenodd;stroke:none;stroke-width:0.999997;stroke-linecap:butt;stroke-miterlimit:4;stroke-dasharray:none;stroke-opacity:1;paint-order:stroke markers fill"
     id="rect1109-9"
     width="64"
     height="64"
     x="896"
     y="0" />
  <rect
     y="128"
     x="896"
     height="16"
     width="16"
     id="rect3088"
     style="fill:#ff3f7f;fill-opacity:1;fill-rule:evenodd;stroke:none;stroke-width:2;stroke-linecap:butt;stroke-miterlimit:4;stroke-dasharray:none;stroke-opacity:1;paint-order:stroke markers fill" />
  <rect
     y="128"
     x="944"
     height="16"
     width="16"
     id="rect3090"
     style="fill:#bfff5f;fill-opacity:1;fill-rule:evenodd;stroke:none;stroke-width:2;stroke-linecap:butt;stroke-miterlimit:4;stroke-dasharray:none;stroke-opacity:1;paint-order:stroke markers fill" />
  <rect
     y="144"
     x="944"
     height="16"
     width="16"
     id="rect3092"
     style="fill:#3fff6f;fill-opacity:1;fill-rule:evenodd;stroke:none;stroke-width:2;stroke-linecap:butt;stroke-miterlimit:4;stroke-dasharray:none;stroke-opacity:1;paint-order:stroke markers fill" />
  <rect
     style="fill:#3fbfff;fill-opacity:1;fill-rule:evenodd;stroke:none;stroke-width:2;stroke-linecap:butt;stroke-miterlimit:4;stroke-dasharray:none;stroke-opacity:1;paint-order:stroke markers fill"
     id="rect3090-3"
     width="16"
     height="16"
     x="896"
     y="144" />
  <rect
     y="144"
     x="912"
     height="16"
     width="16"
     id="rect3090-3-7"
     style="fill:#00efff;fill-opacity:1;fill-rule:evenodd;stroke:none;stroke-width:2;stroke-linecap:butt;stroke-miterlimit:4;stroke-dasharray:none;stroke-opacity:1;paint-order:stroke markers fill" />
  <rect
     y="128"
     x="912"
     height="16"
     width="16"
     id="rect3090-3-4"
     style="fill:#ff9f3f;fill-opacity:1;fill-rule:evenodd;stroke:none;stroke-width:2;stroke-linecap:butt;stroke-miterlimit:4;stroke-dasharray:none;stroke-opacity:1;paint-order:stroke markers fill" />
  <rect
     style="fill:#ffef3f;fill-opacity:1;fill-rule:evenodd;stroke:none;stroke-width:2;stroke-linecap:butt;stroke-miterlimit:4;stroke-dasharray:none;stroke-opacity:1;paint-order:stroke markers fill"
     id="rect3090-3-4-8"
     width="16"
     height="16"
     x="928"
     y="128" />
  <rect
     y="160"
     x="896"
     height="16"
     width="16"
     id="rect3090-3-9"
     style="fill:#3f7fff;fill-opacity:1;fill-rule:evenodd;stroke:none;stroke-width:2;stroke-linecap:butt;stroke-miterlimit:4;stroke-dasharray:none;stroke-opacity:1;paint-order:stroke markers fill" />
  <rect
     style="fill:#7f4fff;fill-opacity:1;fill-rule:evenodd;stroke:none;stroke-width:2;stroke-linecap:butt;stroke-miterlimit:4;stroke-dasharray:none;stroke-opacity:1;paint-order:stroke markers fill"
     id="rect3090-3-9-6"
     width="16"
     height="16"
     x="912"
     y="160" />
  <rect
     y="160"
     x="928"
     height="16"
     width="16"
     id="rect3090-3-9-6-0"
     style="fill:#bf20ff;fill-opacity:1;fill-rule:evenodd;stroke:none;stroke-width:2;stroke-linecap:butt;stroke-miterlimit:4;stroke-dasharray:none;stroke-opacity:1;paint-order:stroke markers fill" />
  <rect
     style="fill:#ff20ff;fill-opacity:1;fill-rule:evenodd;stroke:none;stroke-width:2;stroke-linecap:butt;stroke-miterlimit:4;stroke-dasharray:none;stroke-opacity:1;paint-order:stroke markers fill"
     id="rect3090-3-9-6-0-5"
     width="16"
     height="16"
     x="944"
     y="160" />
  <rect
     style="fill:#1fe75f;fill-opacity:1;fill-rule:evenodd;stroke:none;stroke-width:2;stroke-linecap:butt;stroke-miterlimit:4;stroke-dasharray:none;stroke-opacity:1;paint-order:stroke markers fill"
     id="rect3092-9"
     width="16"
     height="16"
     x="928"
     y="144" />
  <rect
     y="176"
     x="896"
     height="16"
     width="16"
     id="rect3250"
     style="fill:#6c5367;fill-opacity:1;fill-rule:evenodd;stroke:none;stroke-width:2;stroke-linecap:butt;stroke-miterlimit:4;stroke-dasharray:none;stroke-opacity:1;paint-order:stroke markers fill" />
  <rect
     y="176"
     x="912"
     height="16"
     width="16"
     id="rect3252"
     style="fill:#916f8a;fill-opacity:1;fill-rule:evenodd;stroke:none;stroke-width:2;stroke-linecap:butt;stroke-miterlimit:4;stroke-dasharray:none;stroke-opacity:1;paint-order:stroke markers fill" />
  <rect
     y="176"
     x="928"
     height="16"
     width="16"
     id="rect3254"
     style="fill:#ac93a7;fill-opacity:1;fill-rule:evenodd;stroke:none;stroke-width:2;stroke-linecap:butt;stroke-miterlimit:4;stroke-dasharray:none;stroke-opacity:1;paint-order:stroke markers fill" />
  <rect
     y="176"
     x="944"
     height="16"
     width="16"
     id="rect3256"
     style="fill:#c8b7c4;fill-opacity:1;fill-rule:evenodd;stroke:none;stroke-width:2;stroke-linecap:butt;stroke-miterlimit:4;stroke-dasharray:none;stroke-opacity:1;paint-order:stroke markers fill" />
  <rect
     inkscape:export-ydpi="96"
     inkscape:export-xdpi="96"
     y="0"
     x="960"
     height="64"
     width="64"
     id="rect3258"
     style="fill:#000000;fill-opacity:1;fill-rule:evenodd;stroke:none;stroke-width:2;stroke-linecap:butt;stroke-miterlimit:4;stroke-dasharray:none;stroke-opacity:1;paint-order:stroke markers fill" />
  <rect
     y="64"
     x="960"
     height="64"
     width="64"
     id="rect3299"
     style="fill:url(#radialGradient3309);fill-opacity:1;fill-rule:evenodd;stroke:none;stroke-width:2;stroke-linecap:butt;stroke-miterlimit:4;stroke-dasharray:none;stroke-opacity:1;paint-order:stroke markers fill" />
  <path
     sodipodi:nodetypes="zzzsz"
     inkscape:connector-curvature="0"
     d="m 92,288 c 0,12 -11.163444,24 -28,24 -16.836556,0 -28,-12 -28,-24 0,-12 10.326888,-24 28,-24 17.673112,0 28,12 28,24 z"
     style="opacity:1;fill:#ffffff;fill-opacity:1;fill-rule:evenodd;stroke-width:8;stroke-miterlimit:2;stroke-dasharray:none"
     id="path1266-8" />
  <path
     sodipodi:nodetypes="czzcsczcsc"
     inkscape:connector-curvature="0"
     d="m 24,344 c 36,-12 8,0 20,8 12,8 28,8 40,0 12,-8 -20,-20 20,-8 0,0 4,4 4,16 v 4 C 99.999998,368 76,376 63.85534,376 51.710676,376 28,368 20,364 v -4 c 0,-12 4,-16 4,-16 z"
     style="opacity:1;fill:#ffffff;fill-opacity:1;fill-rule:evenodd;stroke-width:8;stroke-miterlimit:2;stroke-dasharray:none"
     id="rect1276-1" />
  <path
     sodipodi:nodetypes="czcczcc"
     inkscape:connector-curvature="0"
     d="m 48,312 c 0,0 4,4 16,4 12,0 16,-4 16,-4 l -4,32 c 0,0 0,8 -12,8 -12,0 -12,-8 -12,-8 z"
     style="opacity:1;fill:#ffffff;fill-opacity:1;fill-rule:evenodd;stroke-width:8;stroke-miterlimit:2;stroke-dasharray:none"
     id="rect1279-2" />
  <path
     fill-rule="evenodd"
     stroke="#ffffff"
     stroke-width="4"
     stroke-opacity="1"
     clip-path="none"
     d="m 788,151.26584 85.48951,-3.41959 c 0,0 3.41958,41.03497 3.41958,68.39161 l -13.67832,17.0979 -71.81119,3.41958 c 0,0 -3.41958,-44.45454 -3.41958,-71.81119 z"
     id="path62-6"
     style="opacity:1;fill:none;fill-opacity:1;fill-rule:evenodd;stroke-width:6.83916;stroke-miterlimit:2;stroke-dasharray:none"
     inkscape:connector-curvature="0"
     sodipodi:nodetypes="ccccczc" />
  <path
     sodipodi:nodetypes="ccccccccc"
     inkscape:connector-curvature="0"
     d="m 788,151.26584 85.48951,-3.41959 3.41958,68.39161 -13.67832,17.0979 v -34.1958 H 805.0979 v 37.61538 h -13.67832 z"
     style="fill:#ffffff;fill-opacity:1;fill-rule:evenodd;stroke:none;stroke-width:3.41958;stroke-linecap:butt;stroke-miterlimit:4;stroke-dasharray:none;stroke-opacity:1;paint-order:stroke markers fill"
     id="rect3359" />
  <path
     inkscape:transform-center-y="-3.4195794"
     inkscape:transform-center-x="3.4195757"
     sodipodi:nodetypes="ccccc"
     inkscape:connector-curvature="0"
     d="m 859.81119,228.20639 h -17.0979 v -25.64685 h 17.0979 z"
     style="fill:#ffffff;fill-opacity:1;fill-rule:evenodd;stroke:none;stroke-width:3.41958;stroke-linecap:butt;stroke-miterlimit:4;stroke-dasharray:none;stroke-opacity:1;paint-order:stroke markers fill"
     id="rect3362" />
  <circle
     r="52"
     cy="320"
     cx="832"
     id="path3365"
     style="fill:#000000;fill-opacity:1;fill-rule:evenodd;stroke:#ffffff;stroke-width:8;stroke-linecap:butt;stroke-miterlimit:4;stroke-dasharray:none;stroke-opacity:1;paint-order:markers fill stroke" />
  <path
     d="M 820.61196,362.50074 A 44,44 0 0 1 790.65352,335.04889 L 832,320 Z"
     sodipodi:arc-type="slice"
     sodipodi:end="2.7925268"
     sodipodi:start="1.8325957"
     sodipodi:ry="44"
     sodipodi:rx="44"
     sodipodi:cy="320"
     sodipodi:cx="832"
     sodipodi:type="arc"
     id="path3367"
     style="fill:#f8ffff;fill-opacity:1;fill-rule:evenodd;stroke:none;stroke-width:8;stroke-linecap:butt;stroke-miterlimit:4;stroke-dasharray:none;stroke-opacity:1;paint-order:markers fill stroke" />
  <path
     transform="rotate(175.51703)"
     style="fill:#f8ffff;fill-opacity:1;fill-rule:evenodd;stroke:none;stroke-width:8;stroke-linecap:butt;stroke-miterlimit:4;stroke-dasharray:none;stroke-opacity:1;paint-order:markers fill stroke"
     id="path3367-6"
     sodipodi:type="arc"
     sodipodi:cx="-804.4425"
     sodipodi:cy="-384.0524"
     sodipodi:rx="44"
     sodipodi:ry="44"
     sodipodi:start="1.8325957"
     sodipodi:end="2.7925268"
     sodipodi:arc-type="slice"
     d="m -815.83054,-341.55166 a 44,44 0 0 1 -29.95844,-27.45185 l 41.34648,-15.04889 z" />
  <path
     style="fill:#f8ffff;fill-opacity:1;fill-rule:evenodd;stroke:none;stroke-width:8;stroke-linecap:butt;stroke-miterlimit:4;stroke-dasharray:none;stroke-opacity:1;paint-order:markers fill stroke"
     id="path3367-7"
     sodipodi:type="arc"
     sodipodi:cx="832"
     sodipodi:cy="320"
     sodipodi:rx="44"
     sodipodi:ry="44"
     sodipodi:start="1.3089969"
     sodipodi:end="1.5707963"
     sodipodi:arc-type="slice"
     d="M 843.38804,362.50074 A 44,44 0 0 1 832,364 v -44 z" />
  <path
     d="M 820.61196,277.49926 A 44,44 0 0 1 832,276 v 44 z"
     sodipodi:arc-type="slice"
     sodipodi:end="4.712389"
     sodipodi:start="4.4505896"
     sodipodi:ry="44"
     sodipodi:rx="44"
     sodipodi:cy="320"
     sodipodi:cx="832"
     sodipodi:type="arc"
     id="path3367-7-5"
     style="fill:#f8ffff;fill-opacity:1;fill-rule:evenodd;stroke:none;stroke-width:8;stroke-linecap:butt;stroke-miterlimit:4;stroke-dasharray:none;stroke-opacity:1;paint-order:markers fill stroke" />
  <circle
     r="8"
     cy="320"
     cx="832"
     id="path3414"
     style="fill:#000000;fill-opacity:1;fill-rule:evenodd;stroke:#ffffff;stroke-width:6;stroke-linecap:butt;stroke-miterlimit:4;stroke-dasharray:none;stroke-opacity:1;paint-order:markers fill stroke" />
  <path
     id="rect1429-0-3"
     style="opacity:1;fill:#ffffff;fill-opacity:1;fill-rule:evenodd;stroke:none;stroke-width:8;stroke-miterlimit:2;stroke-dasharray:none;stroke-opacity:1"
     d="m 888,104 c 0,7.9344 -72,12.06497 -72,0.065 0,-12 72,-7.999364 72,-0.065 z"
     inkscape:connector-curvature="0"
     sodipodi:nodetypes="zzz" />
  <path
     sodipodi:nodetypes="csssscc"
     inkscape:connector-curvature="0"
     id="path3456"
     d="m 793.86422,148.81387 0.97494,33.22818 c 0.10037,3.41812 3.41959,6.83917 6.83916,6.83917 h 58.13287 c 3.41958,0 6.83914,-3.41959 6.83914,-6.83917 v -36.12341 z"
     style="fill:none;stroke:#000000;stroke-width:3.41958;stroke-linecap:butt;stroke-linejoin:miter;stroke-miterlimit:4;stroke-dasharray:none;stroke-opacity:1" />
  <path
     sodipodi:nodetypes="cc"
     inkscape:connector-curvature="0"
     id="path3458"
     d="m 804.80681,161.0948 c 21.26938,-2.90378 35.59438,4.81643 52.60004,-2.01767"
     style="fill:none;stroke:#000000;stroke-width:4.27448;stroke-linecap:butt;stroke-linejoin:miter;stroke-miterlimit:4;stroke-dasharray:none;stroke-opacity:1" />
  <path
     sodipodi:nodetypes="cc"
     inkscape:connector-curvature="0"
     id="path3460"
     d="m 806.21514,176.25465 c 18.39359,-7.09197 37.0793,2.38639 51.61643,-0.47881"
     style="fill:none;stroke:#000000;stroke-width:4.27448;stroke-linecap:butt;stroke-linejoin:miter;stroke-miterlimit:4;stroke-dasharray:none;stroke-opacity:1" />
  <path
     fill-rule="evenodd"
     fill="#ffffff"
     d="m 532,192 c 0,-39.33623 0.4689,-41.77109 6.55604,-39.33623 65.56038,26.22415 71.33622,36.0582 71.33622,39.33623 0,3.27802 -5.77584,13.11208 -71.33622,39.33622 C 532.4689,233.77108 532,231.33622 532,192 Z"
     id="path37-0"
     style="stroke:none;stroke-width:3.27802"
     inkscape:connector-curvature="0"
     sodipodi:nodetypes="sszss" />
  <path
     sodipodi:nodetypes="ccccc"
     inkscape:connector-curvature="0"
     d="m 592,144 h 28 l 4,96 h -28 z"
     style="fill:#ffffff;fill-opacity:1;stroke:#000000;stroke-width:8;stroke-linejoin:round;stroke-miterlimit:4;stroke-dasharray:none;stroke-opacity:1;paint-order:normal"
     id="rect1774" />
  <rect
     y="896"
     x="768"
     height="128"
     width="128"
     id="rect1779"
     style="fill:url(#linearGradient1787);fill-opacity:1.0;stroke:none;stroke-width:2.5;stroke-linejoin:round;stroke-miterlimit:4;stroke-dasharray:none;stroke-opacity:1;paint-order:normal" />
  <circle
     transform="rotate(40.573804)"
     inkscape:transform-center-y="-0.32588294"
     inkscape:transform-center-x="0.087227719"
     r="12"
     cy="-214.83861"
     cx="742.87305"
     id="path2007"
     style="fill:#ffffff;fill-opacity:1;stroke:none;stroke-width:6;stroke-linejoin:round;stroke-miterlimit:4;stroke-dasharray:none;stroke-opacity:1;paint-order:normal" />
  <path
     inkscape:transform-center-y="18.674133"
     inkscape:transform-center-x="30.087206"
     sodipodi:nodetypes="ccccc"
     inkscape:connector-curvature="0"
     id="path2019"
     d="m 670,351.99999 20,-26 -32,6 4,12 z"
     style="fill:#ffffff;fill-opacity:1;stroke:none;stroke-width:1px;stroke-linecap:butt;stroke-linejoin:miter;stroke-opacity:1" />
  <circle
     r="27"
     transform="rotate(40.5738)"
     inkscape:transform-center-y="-0.32586255"
     inkscape:transform-center-x="0.087264931"
     cy="-214.83852"
     cx="742.87305"
     id="path2021"
     style="fill:none;fill-opacity:1;stroke:#ffffff;stroke-width:8;stroke-linejoin:round;stroke-miterlimit:4;stroke-dasharray:none;stroke-opacity:1;paint-order:normal" />
  <path
     inkscape:transform-center-y="-33.135402"
     inkscape:transform-center-x="1.0872063"
     sodipodi:nodetypes="ccccc"
     style="fill:#ffffff;fill-opacity:1;stroke:none;stroke-width:1px;stroke-linecap:butt;stroke-linejoin:miter;stroke-opacity:1"
     d="M 704.20945,304.38092 692,273.99999 l 12,-4 10,4 z"
     id="path2011-1"
     inkscape:connector-curvature="0" />
  <path
     inkscape:transform-center-y="-30.376737"
     inkscape:transform-center-x="-8.7916537"
     sodipodi:nodetypes="cccc"
     inkscape:connector-curvature="0"
     id="path2041"
     d="m 708.9763,292.66439 7.80512,-9.11482 -0.42772,12.7991 z"
     style="fill:#ffffff;fill-opacity:1;stroke:none;stroke-width:1px;stroke-linecap:butt;stroke-linejoin:miter;stroke-opacity:1" />
  <path
     inkscape:transform-center-y="-24.092967"
     inkscape:transform-center-x="-22.568609"
     sodipodi:nodetypes="cccc"
     inkscape:connector-curvature="0"
     id="path2043"
     d="m 734.51772,288.20506 -15.72381,7.60011 9.87439,8.45555 z"
     style="fill:#ffffff;fill-opacity:1;stroke:none;stroke-width:1px;stroke-linecap:butt;stroke-linejoin:miter;stroke-opacity:1" />
  <path
     inkscape:transform-center-y="25.674133"
     inkscape:transform-center-x="18.087206"
     inkscape:connector-curvature="0"
     id="path2045"
     d="m 679.16831,352.61783 6.06769,-13.23568 7.59569,6.50427 z"
     style="fill:#ffffff;fill-opacity:1;stroke:none;stroke-width:1px;stroke-linecap:butt;stroke-linejoin:miter;stroke-opacity:1" />
  <path
     inkscape:transform-center-y="33.674138"
     inkscape:transform-center-x="10.087206"
     inkscape:connector-curvature="0"
     id="path2047"
     d="m 688.90573,362.67825 4.33028,-17.35651 5.85826,2.38342 z"
     style="fill:#ffffff;fill-opacity:1;stroke:none;stroke-width:1px;stroke-linecap:butt;stroke-linejoin:miter;stroke-opacity:1" />
  <path
     inkscape:transform-center-y="1.6741334"
     inkscape:transform-center-x="-33.912789"
     inkscape:connector-curvature="0"
     id="path2049"
     d="m 729.79569,315.63272 2.03772,12.73454 14.37089,-1.77218 z"
     style="fill:#ffffff;fill-opacity:1;stroke:none;stroke-width:0.985885px;stroke-linecap:butt;stroke-linejoin:miter;stroke-opacity:1" />
  <path
     inkscape:transform-center-y="29.674133"
     inkscape:transform-center-x="-19.741004"
     sodipodi:nodetypes="cccc"
     inkscape:connector-curvature="0"
     id="path2051"
     d="m 709.23483,345.25 12.40507,-7.23581 5.49868,19.59392 z"
     style="fill:#ffffff;fill-opacity:1;stroke:none;stroke-width:0.946558px;stroke-linecap:butt;stroke-linejoin:miter;stroke-opacity:1" />
  <path
     inkscape:transform-center-y="17.674133"
     inkscape:transform-center-x="-28.912794"
     sodipodi:nodetypes="ccccc"
     inkscape:connector-curvature="0"
     id="path2061"
     d="m 747.73293,335.33535 -4,10 -6,6 -20,-24 z"
     style="fill:#ffffff;fill-opacity:1;stroke:none;stroke-width:1.71107px;stroke-linecap:butt;stroke-linejoin:miter;stroke-opacity:1" />
  <path
     inkscape:transform-center-y="-2.0839116"
     inkscape:transform-center-x="35.256341"
     sodipodi:nodetypes="cccc"
     style="fill:#ffffff;fill-opacity:1;stroke:none;stroke-width:0.849837px;stroke-linecap:butt;stroke-linejoin:miter;stroke-opacity:1"
     d="m 661.26357,317.63429 13.95878,-6.47846 1.17581,14.17223 z"
     id="path2051-7"
     inkscape:connector-curvature="0" />
  <path
     inkscape:transform-center-y="-32.332247"
     inkscape:transform-center-x="16.915696"
     style="fill:#ffffff;fill-opacity:1;stroke:none;stroke-width:1px;stroke-linecap:butt;stroke-linejoin:miter;stroke-opacity:1"
     d="m 680.98582,279.22813 12.37138,13.22682 -7.17072,4.30414 z"
     id="path2041-7"
     inkscape:connector-curvature="0"
     sodipodi:nodetypes="cccc" />
  <path
     style="fill:#ffffff;fill-opacity:1;stroke:none;stroke-width:1.10635px;stroke-linecap:butt;stroke-linejoin:miter;stroke-opacity:1"
     d="m 655.60243,302.67071 1.81305,-8 5.43915,-4 10.8783,14 z"
     id="path2061-6"
     inkscape:connector-curvature="0"
     sodipodi:nodetypes="ccccc"
     inkscape:transform-center-x="34.887413"
     inkscape:transform-center-y="-21.853937" />
  <path
     style="fill:#ffffff;fill-opacity:1;stroke:none;stroke-width:0.55978px;stroke-linecap:butt;stroke-linejoin:miter;stroke-opacity:1"
     d="m 746.04677,294.70057 -10.61029,13.20978 16.95596,-0.91625 -1.23269,-6.84766 z"
     id="path2019-9"
     inkscape:connector-curvature="0"
     sodipodi:nodetypes="ccccc"
     inkscape:transform-center-x="-35.656327"
     inkscape:transform-center-y="-18.753327" />
  <path
     inkscape:connector-curvature="0"
     id="path2011-1-6"
     d="m 706.87023,353.7519 8.62212,14.57562 -8.02341,1.82195 -7.0653,-1.82195 z"
     style="fill:#ffffff;fill-opacity:1;stroke:none;stroke-width:0.529692px;stroke-linecap:butt;stroke-linejoin:miter;stroke-opacity:1"
     sodipodi:nodetypes="ccccc"
     inkscape:transform-center-x="-2.5254287"
     inkscape:transform-center-y="40.537558" />
  <path
     style="fill:#ffffff;fill-opacity:1;stroke:none;stroke-width:1px;stroke-linecap:butt;stroke-linejoin:miter;stroke-opacity:1"
     d="m 678.6497,303.63444 -4.12457,-11.2689 10.94974,6.64103 z"
     id="path2041-1"
     inkscape:connector-curvature="0"
     sodipodi:nodetypes="cccc"
     inkscape:transform-center-x="24.087206"
     inkscape:transform-center-y="-22.325867" />
  <path
     d="m 410.15674,278.80153 a 53.443966,53.727238 0 0 1 75.58118,-1e-5 l -37.79059,37.9909 z"
     sodipodi:arc-type="slice"
     sodipodi:end="5.4977871"
     sodipodi:start="3.9269908"
     sodipodi:ry="53.727238"
     sodipodi:rx="53.443966"
     sodipodi:cy="316.79242"
     sodipodi:cx="447.94733"
     sodipodi:type="arc"
     id="path2168"
     style="fill:#000000;fill-opacity:0;stroke:none;stroke-width:8;stroke-linejoin:round;stroke-miterlimit:4;stroke-dasharray:none;stroke-opacity:1;paint-order:normal" />
  <circle
     r="8"
     style="opacity:1;fill:#ffffff;fill-opacity:1;fill-rule:evenodd;stroke:#000000;stroke-width:8;stroke-linecap:round;stroke-miterlimit:4;stroke-dasharray:none;stroke-opacity:1;paint-order:stroke markers fill"
     id="path1526"
     cx="448"
     cy="315.99936" />
</svg>
